Light.ufo
<glyph name="exclam" format="1">
  <advance width="134.0"/>
  <unicode hex="0021"/>
  <outline>
    <contour>
      <point x="55" y="150" type="line"/>
      <point x="55" y="150"/>
      <point x="75" y="150"/>
      <point x="75" y="150" type="curve"/>
      <point x="75" y="685" type="line"/>
      <point x="55" y="685" type="line"/>
    </contour>
    <component base="period" xOffset="-30"/>
  </outline>
</glyph>
<glyph name="ampersand" format="1">
  <advance width="647"/>
  <unicode hex="0026"/>
  <outline>
    <contour>
      <point x="612" y="2" type="line"/>
      <point x="588.0" y="-9.0"/>
      <point x="568" y="-12"/>
      <point x="548" y="-12" type="curve" smooth="yes"/>
      <point x="357.0" y="-12.0"/>
      <point x="156" y="386"/>
      <point x="156" y="509" type="curve"/>
      <point x="156" y="626"/>
      <point x="204.0" y="695.0"/>
      <point x="298" y="695" type="curve" smooth="yes"/>
      <point x="371" y="695"/>
      <point x="426" y="620"/>
      <point x="426" y="544" type="curve" smooth="yes"/>
      <point x="426.0" y="445.796407186"/>
      <point x="354" y="398"/>
      <point x="254" y="339" type="curve" smooth="yes"/>
      <point x="199.0" y="304.807228916"/>
      <point x="90" y="261"/>
      <point x="91" y="161" type="curve"/>
      <point x="90" y="59"/>
      <point x="151.0" y="6.0"/>
      <point x="250" y="6" type="curve" smooth="yes"/>
      <point x="391" y="6"/>
      <point x="487" y="139"/>
      <point x="537" y="286" type="curve"/>
      <point x="555" y="279" type="line"/>
      <point x="507" y="129"/>
      <point x="392" y="-12"/>
      <point x="250" y="-12" type="curve" smooth="yes"/>
      <point x="152.0" y="-12.0"/>
      <point x="70" y="42"/>
      <point x="71" y="161" type="curve"/>
      <point x="70" y="272"/>
      <point x="186.0" y="319.906077348"/>
      <point x="244" y="354" type="curve" smooth="yes"/>
      <point x="333" y="404"/>
      <point x="406.0" y="454.0"/>
      <point x="406" y="544" type="curve"/>
      <point x="406" y="611"/>
      <point x="360" y="678"/>
      <point x="298" y="678" type="curve" smooth="yes"/>
      <point x="218.0" y="678.0"/>
      <point x="175" y="607"/>
      <point x="176" y="509" type="curve"/>
      <point x="176" y="394"/>
      <point x="374.0" y="6.0"/>
      <point x="548" y="6" type="curve" smooth="yes"/>
      <point x="567" y="6"/>
      <point x="590.0" y="7.0"/>
      <point x="615" y="22" type="curve"/>
    </contour>
  </outline>
</glyph>
<glyph name="comma" format="1">
  <advance width="177"/>
  <unicode hex="002C"/>
  <outline>
    <contour>
      <point x="113" y="0" type="line"/>
      <point x="113.0" y="-50.900990099"/>
      <point x="103" y="-79"/>
      <point x="70" y="-97" type="curve"/>
      <point x="76" y="-110" type="line"/>
      <point x="111" y="-90"/>
      <point x="127.0" y="-57.8947368421"/>
      <point x="127" y="0" type="curve" smooth="yes"/>
      <point x="127" y="115" type="line"/>
      <point x="87" y="115" type="line"/>
      <point x="87" y="0" type="line"/>
    </contour>
    <contour>
      <point x="68.0" y="199.0" type="move" name="_bottom"/>
    </contour>
  </outline>
</glyph>
<glyph name="slash" format="1">
  <advance width="533"/>
  <unicode hex="002F"/>
  <outline>
    <contour>
      <point x="71" y="-103" type="line"/>
      <point x="439" y="755" type="line"/>
      <point x="453.284048476" y="748.407362242"/>
      <point x="453" y="748"/>
      <point x="453" y="748" type="curve"/>
      <point x="86" y="-110" type="line"/>
    </contour>
  </outline>
</glyph>
<glyph name="two" format="1">
  <advance width="554"/>
  <unicode hex="0032"/>
  <outline>
    <contour>
      <point x="494" y="0" type="line"/>
      <point x="73" y="0" type="line"/>
      <point x="73" y="12" type="line" smooth="yes"/>
      <point x="73.0" y="297.726315789"/>
      <point x="472" y="276"/>
      <point x="472" y="480" type="curve"/>
      <point x="472.0" y="602.0"/>
      <point x="397.282722513" y="677.0"/>
      <point x="271" y="677" type="curve" smooth="yes"/>
      <point x="161.162162162" y="677.0"/>
      <point x="72" y="611"/>
      <point x="79" y="467" type="curve"/>
      <point x="61" y="470" type="line"/>
      <point x="58" y="623"/>
      <point x="152.0" y="695.0"/>
      <point x="271" y="695" type="curve" smooth="yes"/>
      <point x="409.255924171" y="695.0"/>
      <point x="492.0" y="613.0"/>
      <point x="492" y="480" type="curve"/>
      <point x="492.0" y="265.0"/>
      <point x="94.0" y="290.0"/>
      <point x="94" y="9" type="curve"/>
      <point x="94.0" y="9.0"/>
      <point x="89.0" y="18.0"/>
      <point x="89" y="18" type="curve"/>
      <point x="494" y="18" type="line"/>
    </contour>
  </outline>
</glyph>
<glyph name="three" format="1">
  <advance width="615"/>
  <unicode hex="0033"/>
  <outline>
    <contour>
      <point x="286" y="350" type="line"/>
      <point x="286" y="368" type="line"/>
      <point x="332" y="368" type="line" smooth="yes"/>
      <point x="462" y="368"/>
      <point x="570" y="302"/>
      <point x="570" y="182" type="curve"/>
      <point x="570" y="59"/>
      <point x="463" y="-12"/>
      <point x="332" y="-12" type="curve" smooth="yes"/>
      <point x="215" y="-12"/>
      <point x="119" y="44"/>
      <point x="87" y="154" type="curve"/>
      <point x="104" y="161" type="line"/>
      <point x="136" y="59"/>
      <point x="224" y="6"/>
      <point x="332" y="6" type="curve" smooth="yes"/>
      <point x="452" y="6"/>
      <point x="550" y="69"/>
      <point x="550" y="181" type="curve"/>
      <point x="550" y="291"/>
      <point x="451" y="350"/>
      <point x="332" y="350" type="curve" smooth="yes"/>
    </contour>
    <contour>
      <point x="286" y="368" type="line"/>
      <point x="332" y="368" type="line" smooth="yes"/>
      <point x="433" y="368"/>
      <point x="516" y="420"/>
      <point x="516" y="513" type="curve"/>
      <point x="516" y="614"/>
      <point x="434" y="677"/>
      <point x="329" y="677" type="curve" smooth="yes"/>
      <point x="229" y="677"/>
      <point x="148" y="631"/>
      <point x="114" y="538" type="curve"/>
      <point x="102" y="544" type="line"/>
      <point x="133" y="645"/>
      <point x="221" y="695"/>
      <point x="329" y="695" type="curve" smooth="yes"/>
      <point x="445" y="695"/>
      <point x="536" y="625"/>
      <point x="536" y="513" type="curve"/>
      <point x="536" y="409"/>
      <point x="444" y="350"/>
      <point x="332" y="350" type="curve" smooth="yes"/>
      <point x="286" y="350" type="line"/>
    </contour>
  </outline>
</glyph>
<glyph name="four" format="1">
  <advance width="608"/>
  <unicode hex="0034"/>
  <outline>
    <contour>
      <point x="33" y="176" type="line"/>
      <point x="33.0" y="176.0"/>
      <point x="384.0" y="678.0"/>
      <point x="384" y="678" type="curve"/>
      <point x="398" y="667" type="line"/>
      <point x="48" y="166" type="line"/>
    </contour>
    <contour>
      <point x="544" y="158" type="line"/>
      <point x="544" y="158"/>
      <point x="33" y="158"/>
      <point x="33" y="158" type="curve"/>
      <point x="33" y="176" type="line"/>
      <point x="544" y="176" type="line"/>
    </contour>
    <contour>
      <point x="384" y="0" type="line"/>
      <point x="384.0" y="0.0"/>
      <point x="384.0" y="678.0"/>
      <point x="384" y="678" type="curve"/>
      <point x="404" y="678" type="line"/>
      <point x="404" y="0" type="line"/>
    </contour>
  </outline>
</glyph>
<glyph name="five" format="1">
  <advance width="568"/>
  <unicode hex="0035"/>
  <outline>
    <contour>
      <point x="113" y="338" type="line" smooth="yes"/>
      <point x="113.0" y="338.0"/>
      <point x="164.0" y="685.0"/>
      <point x="164" y="685" type="curve"/>
      <point x="466" y="685" type="line"/>
      <point x="466" y="667" type="line"/>
      <point x="160" y="667" type="line"/>
      <point x="160" y="667"/>
      <point x="182" y="672"/>
      <point x="182" y="672" type="curve"/>
      <point x="127" y="335" type="line"/>
    </contour>
    <contour>
      <point x="127" y="335" type="curve"/>
      <point x="117" y="339" type="line"/>
      <point x="138" y="418"/>
      <point x="215" y="460"/>
      <point x="299" y="460" type="curve" smooth="yes"/>
      <point x="422" y="460"/>
      <point x="508" y="353"/>
      <point x="508" y="225" type="curve" smooth="yes"/>
      <point x="508" y="92"/>
      <point x="408" y="-12"/>
      <point x="276" y="-12" type="curve" smooth="yes"/>
      <point x="176" y="-12"/>
      <point x="88" y="42"/>
      <point x="60" y="137" type="curve"/>
      <point x="74" y="144" type="line"/>
      <point x="100" y="56"/>
      <point x="183" y="6"/>
      <point x="276" y="6" type="curve" smooth="yes"/>
      <point x="396" y="6"/>
      <point x="485" y="103"/>
      <point x="488" y="225" type="curve" smooth="yes"/>
      <point x="491" y="342"/>
      <point x="414" y="442"/>
      <point x="302" y="442" type="curve" smooth="yes"/>
      <point x="225" y="442"/>
      <point x="157" y="405"/>
    </contour>
  </outline>
</glyph>
<glyph name="less" format="1">
  <advance width="573"/>
  <unicode hex="003C"/>
  <outline>
    <contour>
      <point x="472.0" y="-83.0" type="line"/>
      <point x="485.0" y="-70.0" type="line"/>
      <point x="155" y="280" type="line"/>
      <point x="155" y="280"/>
      <point x="156" y="273"/>
      <point x="156" y="273" type="curve"/>
      <point x="485.0" y="631.0" type="line"/>
      <point x="471" y="643" type="line"/>
      <point x="132" y="275" type="line"/>
    </contour>
  </outline>
</glyph>
<glyph name="question" format="1">
  <advance width="449"/>
  <unicode hex="003F"/>
  <outline>
    <contour>
      <point x="213" y="150" type="line"/>
      <point x="213" y="220" type="line" smooth="yes"/>
      <point x="213.0" y="365.185185185"/>
      <point x="410.0" y="365.185185185"/>
      <point x="410" y="500" type="curve"/>
      <point x="410" y="611"/>
      <point x="342" y="677"/>
      <point x="230" y="677" type="curve" smooth="yes"/>
      <point x="125" y="677"/>
      <point x="62" y="622"/>
      <point x="39" y="519" type="curve"/>
      <point x="20" y="524" type="line"/>
      <point x="47" y="636"/>
      <point x="116" y="695"/>
      <point x="230" y="695" type="curve" smooth="yes"/>
      <point x="354" y="695"/>
      <point x="430" y="623"/>
      <point x="430" y="500" type="curve"/>
      <point x="430.0" y="355.204545455"/>
      <point x="233.0" y="350.606741573"/>
      <point x="233" y="223" type="curve" smooth="yes"/>
      <point x="233" y="150" type="line"/>
    </contour>
    <component base="dotaccent" xOffset="128" yOffset="-595"/>
  </outline>
</glyph>
<glyph name="at" format="1">
  <advance width="766"/>
  <unicode hex="0040"/>
  <outline>
    <contour>
      <point x="479" y="141" type="line" smooth="yes"/>
      <point x="473.029411765" y="82.0"/>
      <point x="489.684210526" y="49.0"/>
      <point x="537" y="49" type="curve"/>
      <point x="611.0" y="49.0"/>
      <point x="691" y="123"/>
      <point x="691" y="254" type="curve" smooth="yes"/>
      <point x="691" y="439"/>
      <point x="602.0" y="554.0"/>
      <point x="393" y="554" type="curve" smooth="yes"/>
      <point x="201.0" y="554.0"/>
      <point x="50" y="413"/>
      <point x="50" y="206" type="curve" smooth="yes"/>
      <point x="50" y="17"/>
      <point x="170" y="-90"/>
      <point x="363" y="-90" type="curve" smooth="yes"/>
      <point x="435" y="-90"/>
      <point x="462" y="-80"/>
      <point x="520" y="-59" type="curve"/>
      <point x="527" y="-74" type="line"/>
      <point x="473" y="-96"/>
      <point x="435" y="-108"/>
      <point x="363" y="-108" type="curve" smooth="yes"/>
      <point x="158" y="-108"/>
      <point x="30" y="5"/>
      <point x="30" y="206" type="curve" smooth="yes"/>
      <point x="30" y="417"/>
      <point x="188.0" y="572.0"/>
      <point x="393" y="572" type="curve" smooth="yes"/>
      <point x="600.0" y="572.0"/>
      <point x="711" y="457"/>
      <point x="711" y="254" type="curve" smooth="yes"/>
      <point x="711" y="82"/>
      <point x="593.0" y="32.0"/>
      <point x="525" y="32" type="curve"/>
      <point x="456.0" y="32.0"/>
      <point x="449.886075949" y="94.0"/>
      <point x="456" y="151" type="curve" smooth="yes"/>
      <point x="499" y="389" type="line"/>
      <point x="521" y="389" type="line"/>
    </contour>
    <contour>
      <point x="473" y="245" type="line"/>
      <point x="488.0" y="339.379032258"/>
      <point x="452" y="386"/>
      <point x="382" y="386" type="curve"/>
      <point x="291.843478261" y="386.0"/>
      <point x="238" y="302"/>
      <point x="238" y="217" type="curve" smooth="yes"/>
      <point x="238" y="123"/>
      <point x="272.471910112" y="81.0"/>
      <point x="356" y="81" type="curve"/>
      <point x="421" y="81"/>
      <point x="457.0" y="141.361111111"/>
      <point x="473" y="245" type="curve"/>
      <point x="485" y="245" type="line"/>
      <point x="462" y="128"/>
      <point x="439" y="67"/>
      <point x="343" y="67" type="curve"/>
      <point x="266" y="67"/>
      <point x="218" y="115"/>
      <point x="218" y="216" type="curve" smooth="yes"/>
      <point x="218" y="309"/>
      <point x="284" y="401"/>
      <point x="387" y="401" type="curve"/>
      <point x="484" y="401"/>
      <point x="496" y="313"/>
      <point x="483" y="245" type="curve"/>
    </contour>
  </outline>
</glyph>
<glyph name="A" format="1">
  <advance width="555"/>
  <unicode hex="0041"/>
  <outline>
    <contour>
      <point x="467" y="219" type="line"/>
      <point x="93" y="219" type="line"/>
      <point x="93" y="238" type="line"/>
      <point x="467" y="238" type="line"/>
    </contour>
    <component base="V" xScale="-1" yScale="-1" xOffset="555" yOffset="685"/>
    <contour>
      <point x="279" y="685" type="move" name="top"/>
    </contour>
    <contour>
      <point x="555" y="0" type="move" name="ogonek"/>
    </contour>
  </outline>
</glyph>
<glyph name="B" format="1">
  <advance width="531"/>
  <unicode hex="0042"/>
  <outline>
    <contour>
      <point x="383" y="375"/>
      <point x="437" y="422"/>
      <point x="437" y="515" type="curve" smooth="yes"/>
      <point x="437" y="597"/>
      <point x="386" y="667"/>
      <point x="266" y="667" type="curve" smooth="yes"/>
      <point x="75" y="667" type="line"/>
      <point x="75" y="685" type="line"/>
      <point x="276" y="685" type="line" smooth="yes"/>
      <point x="392" y="685"/>
      <point x="457" y="608"/>
      <point x="457" y="520" type="curve" smooth="yes"/>
      <point x="457" y="405"/>
      <point x="390" y="357"/>
      <point x="265" y="357" type="curve" smooth="yes"/>
      <point x="105" y="357" type="line"/>
      <point x="105" y="375" type="line"/>
      <point x="278" y="375" type="line" smooth="yes"/>
    </contour>
    <contour>
      <point x="415" y="18"/>
      <point x="481" y="88"/>
      <point x="481" y="186" type="curve" smooth="yes"/>
      <point x="481" y="278"/>
      <point x="397" y="357"/>
      <point x="275" y="357" type="curve" smooth="yes"/>
      <point x="55" y="357" type="line"/>
      <point x="55" y="375" type="line"/>
      <point x="258" y="375" type="line" smooth="yes"/>
      <point x="417" y="375"/>
      <point x="501" y="294"/>
      <point x="501" y="186" type="curve" smooth="yes"/>
      <point x="501" y="70"/>
      <point x="426" y="0"/>
      <point x="271" y="0" type="curve" smooth="yes"/>
      <point x="55" y="0" type="line"/>
      <point x="55" y="18" type="line"/>
      <point x="279" y="18" type="line" smooth="yes"/>
    </contour>
    <component base="I"/>
  </outline>
</glyph>
<glyph name="C" format="1">
  <advance width="648"/>
  <unicode hex="0043"/>
  <outline>
    <contour>
      <point x="591" y="491" type="line"/>
      <point x="551" y="608"/>
      <point x="461" y="677"/>
      <point x="338" y="677" type="curve"/>
      <point x="158" y="677"/>
      <point x="50" y="531"/>
      <point x="50" y="341" type="curve" smooth="yes"/>
      <point x="50" y="152"/>
      <point x="159" y="6"/>
      <point x="339" y="6" type="curve"/>
      <point x="460" y="6"/>
      <point x="552" y="66"/>
      <point x="596" y="178" type="curve"/>
      <point x="613" y="169" type="line"/>
      <point x="569" y="50"/>
      <point x="469" y="-12"/>
      <point x="341" y="-12" type="curve"/>
      <point x="150" y="-12"/>
      <point x="30" y="138"/>
      <point x="30" y="337" type="curve" smooth="yes"/>
      <point x="30" y="540"/>
      <point x="148" y="695"/>
      <point x="342" y="695" type="curve"/>
      <point x="472" y="695"/>
      <point x="569" y="623"/>
      <point x="607" y="499" type="curve"/>
    </contour>
    <contour>
      <point x="339" y="0" type="move" name="bottom"/>
    </contour>
    <contour>
      <point x="342" y="685" type="move" name="top"/>
    </contour>
  </outline>
</glyph>
<glyph name="D" format="1">
  <advance width="605"/>
  <unicode hex="0044"/>
  <outline>
    <contour>
      <point x="436" y="18"/>
      <point x="555" y="125"/>
      <point x="555" y="343" type="curve" smooth="yes"/>
      <point x="555" y="541"/>
      <point x="420" y="667"/>
      <point x="211" y="667" type="curve" smooth="yes"/>
      <point x="55" y="667" type="line"/>
      <point x="55" y="685" type="line"/>
      <point x="213" y="685" type="line" smooth="yes"/>
      <point x="425" y="685"/>
      <point x="575" y="551"/>
      <point x="575" y="343" type="curve" smooth="yes"/>
      <point x="575" y="118"/>
      <point x="444" y="0"/>
      <point x="229" y="0" type="curve" smooth="yes"/>
      <point x="55" y="0" type="line"/>
      <point x="55" y="18" type="line"/>
      <point x="215" y="18" type="line" smooth="yes"/>
    </contour>
    <component base="I"/>
    <contour>
      <point x="238.0" y="685.0" type="move" name="top"/>
    </contour>
  </outline>
</glyph>
<glyph name="F" format="1">
  <advance width="513"/>
  <unicode hex="0046"/>
  <outline>
    <contour>
      <point x="443" y="341" type="line"/>
      <point x="55" y="341" type="line"/>
      <point x="55" y="359" type="line"/>
      <point x="443" y="359" type="line"/>
    </contour>
    <contour>
      <point x="493" y="667" type="line"/>
      <point x="55" y="667" type="line"/>
      <point x="55" y="685" type="line"/>
      <point x="493" y="685" type="line"/>
    </contour>
    <contour>
      <point x="55" y="0" type="curve"/>
      <point x="55" y="0"/>
      <point x="55" y="0"/>
    </contour>
    <component base="I"/>
  </outline>
</glyph>
<glyph name="G" format="1">
  <advance width="653"/>
  <unicode hex="0047"/>
  <outline>
    <contour>
      <point x="623" y="296" type="line"/>
      <point x="372" y="296" type="line"/>
      <point x="372" y="314" type="line"/>
      <point x="623" y="314" type="line"/>
    </contour>
    <contour>
      <point x="606" y="0" type="line"/>
      <point x="601" y="314" type="line"/>
      <point x="623" y="314" type="line"/>
      <point x="623" y="0" type="line"/>
    </contour>
    <contour>
      <point x="572" y="529" type="line"/>
      <point x="524" y="624"/>
      <point x="444" y="677"/>
      <point x="338" y="677" type="curve"/>
      <point x="160" y="677"/>
      <point x="50" y="536"/>
      <point x="50" y="351" type="curve" smooth="yes"/>
      <point x="50" y="157"/>
      <point x="156" y="6"/>
      <point x="339" y="6" type="curve"/>
      <point x="490" y="6"/>
      <point x="602" y="100"/>
      <point x="602" y="247" type="curve"/>
      <point x="619" y="248" type="line"/>
      <point x="619" y="91"/>
      <point x="502" y="-12"/>
      <point x="341" y="-12" type="curve"/>
      <point x="147" y="-12"/>
      <point x="30" y="144"/>
      <point x="30" y="347" type="curve" smooth="yes"/>
      <point x="30" y="546"/>
      <point x="150" y="695"/>
      <point x="342" y="695" type="curve"/>
      <point x="455" y="695"/>
      <point x="541" y="640"/>
      <point x="588" y="537" type="curve"/>
    </contour>
    <contour>
      <point x="342" y="685" type="move" name="top"/>
    </contour>
    <contour>
      <point x="343" y="0" type="move" name="bottom"/>
    </contour>
  </outline>
</glyph>
<glyph name="I" format="1">
  <advance width="130"/>
  <unicode hex="0049"/>
  <outline>
    <component base="l"/>
    <contour>
      <point x="65" y="685" type="move" name="top"/>
    </contour>
    <contour>
      <point x="65" y="0" type="move" name="bottom"/>
    </contour>
    <contour>
      <point x="65" y="0" type="move" name="ogonek"/>
    </contour>
  </outline>
</glyph>
<glyph name="J" format="1">
  <advance width="431"/>
  <unicode hex="004A"/>
  <outline>
    <contour>
      <point x="295" y="9"/>
      <point x="356" y="71"/>
      <point x="356" y="177" type="curve" smooth="yes"/>
      <point x="356" y="685" type="line"/>
      <point x="376" y="685" type="line"/>
      <point x="376" y="187" type="line" smooth="yes"/>
      <point x="376" y="56"/>
      <point x="310" y="-11"/>
      <point x="189" y="-11" type="curve"/>
      <point x="94" y="-11"/>
      <point x="26" y="48"/>
      <point x="15" y="135" type="curve"/>
      <point x="32" y="143" type="line"/>
      <point x="49" y="53"/>
      <point x="104" y="9"/>
      <point x="189" y="9" type="curve"/>
    </contour>
    <contour>
      <point x="366" y="685" type="move" name="top"/>
    </contour>
  </outline>
</glyph>
<glyph name="K" format="1">
  <advance width="565"/>
  <unicode hex="004B"/>
  <outline>
    <contour>
      <point x="473" y="685" type="line"/>
      <point x="498" y="685" type="line"/>
      <point x="70" y="171" type="line"/>
      <point x="60" y="190" type="line"/>
    </contour>
    <contour>
      <point x="535" y="0" type="line"/>
      <point x="236" y="390" type="line"/>
      <point x="251.0" y="405.0" type="line"/>
      <point x="560" y="0" type="line"/>
    </contour>
    <component base="I"/>
    <contour>
      <point x="282" y="0" type="move" name="bottom"/>
    </contour>
    <contour>
      <point x="282" y="685" type="move" name="top"/>
    </contour>
  </outline>
</glyph>
<glyph name="L" format="1">
  <advance width="508"/>
  <unicode hex="004C"/>
  <outline>
    <contour>
      <point x="478" y="0" type="line"/>
      <point x="55" y="0" type="line"/>
      <point x="55" y="18" type="line"/>
      <point x="478" y="18" type="line"/>
    </contour>
    <component base="I"/>
    <contour>
      <point x="254" y="685" type="move" name="top"/>
    </contour>
    <contour>
      <point x="254" y="0" type="move" name="bottom"/>
    </contour>
  </outline>
</glyph>
<glyph name="M" format="1">
  <advance width="735"/>
  <unicode hex="004D"/>
  <outline>
    <contour>
      <point x="375" y="0" type="line"/>
      <point x="352" y="0" type="line"/>
      <point x="648" y="685" type="line"/>
      <point x="671" y="685" type="line"/>
    </contour>
    <contour>
      <point x="352" y="0" type="line"/>
      <point x="63" y="685" type="line"/>
      <point x="86" y="685" type="line"/>
      <point x="375" y="0" type="line"/>
    </contour>
    <component base="I" xOffset="605"/>
    <component base="I"/>
  </outline>
</glyph>
<glyph name="O" format="1">
  <advance width="750"/>
  <unicode hex="004F"/>
  <outline>
    <contour>
      <point x="375" y="677" type="curve" smooth="yes"/>
      <point x="184" y="677"/>
      <point x="50" y="531"/>
      <point x="50" y="337" type="curve" smooth="yes"/>
      <point x="50" y="146"/>
      <point x="185" y="6"/>
      <point x="375" y="6" type="curve" smooth="yes"/>
      <point x="565" y="6"/>
      <point x="700" y="146"/>
      <point x="700" y="337" type="curve" smooth="yes"/>
      <point x="700" y="531"/>
      <point x="566" y="677"/>
    </contour>
    <contour>
      <point x="375" y="695" type="curve" smooth="yes"/>
      <point x="578" y="695"/>
      <point x="720" y="542"/>
      <point x="720" y="337" type="curve" smooth="yes"/>
      <point x="720" y="135"/>
      <point x="576" y="-12"/>
      <point x="375" y="-12" type="curve" smooth="yes"/>
      <point x="174" y="-12"/>
      <point x="30" y="135"/>
      <point x="30" y="337" type="curve" smooth="yes"/>
      <point x="30" y="542"/>
      <point x="172" y="695"/>
    </contour>
    <contour>
      <point x="375.0" y="685.0" type="move" name="top"/>
    </contour>
    <contour>
      <point x="375.0" y="0.0" type="move" name="bottom"/>
    </contour>
  </outline>
</glyph>
<glyph name="P" format="1">
  <advance width="494"/>
  <unicode hex="0050"/>
  <outline>
    <contour>
      <point x="444" y="489" type="curve"/>
      <point x="444" y="580"/>
      <point x="384" y="667"/>
      <point x="229" y="667" type="curve" smooth="yes"/>
      <point x="74" y="667" type="line"/>
      <point x="74" y="685" type="line"/>
      <point x="236" y="685" type="line" smooth="yes"/>
      <point x="398" y="685"/>
      <point x="464" y="584"/>
      <point x="464" y="489" type="curve"/>
      <point x="464" y="391"/>
      <point x="413" y="284"/>
      <point x="234" y="284" type="curve" smooth="yes"/>
      <point x="74" y="284" type="line"/>
      <point x="74" y="302" type="line"/>
      <point x="246" y="302" type="line" smooth="yes"/>
      <point x="389" y="302"/>
      <point x="444" y="391"/>
    </contour>
    <component base="I"/>
  </outline>
</glyph>
<glyph name="Q" format="1">
  <advance width="750"/>
  <unicode hex="0051"/>
  <outline>
    <contour>
      <point x="660" y="-43" type="line"/>
      <point x="473" y="181" type="line"/>
      <point x="488" y="194" type="line"/>
      <point x="675" y="-29" type="line"/>
    </contour>
    <component base="O"/>
  </outline>
</glyph>
<glyph name="R" format="1">
  <advance width="515"/>
  <unicode hex="0052"/>
  <outline>
    <contour>
      <point x="290" y="294" type="curve"/>
      <point x="510" y="0" type="line"/>
      <point x="484.0" y="0.0" type="line"/>
      <point x="484.0" y="0.0"/>
      <point x="269.0" y="288.0"/>
      <point x="269.0" y="288.0" type="curve"/>
      <point x="269.0" y="288.0"/>
      <point x="290.0" y="294.0"/>
    </contour>
    <component base="P"/>
    <contour>
      <point x="258" y="684" type="move" name="top"/>
    </contour>
    <contour>
      <point x="257" y="0" type="move" name="bottom"/>
    </contour>
  </outline>
</glyph>
<glyph name="S" format="1">
  <advance width="589"/>
  <unicode hex="0053"/>
  <outline>
    <contour>
      <point x="539" y="564" type="line"/>
      <point x="483" y="635"/>
      <point x="430" y="672"/>
      <point x="318" y="672" type="curve"/>
      <point x="209" y="672"/>
      <point x="98" y="606"/>
      <point x="98" y="498" type="curve"/>
      <point x="98" y="281"/>
      <point x="559" y="425"/>
      <point x="559" y="183" type="curve"/>
      <point x="559" y="49"/>
      <point x="453" y="-12"/>
      <point x="308" y="-12" type="curve"/>
      <point x="155" y="-12"/>
      <point x="66" y="59"/>
      <point x="30" y="125" type="curve"/>
      <point x="45" y="136" type="line"/>
      <point x="101" y="58"/>
      <point x="183" y="6"/>
      <point x="311" y="6" type="curve"/>
      <point x="426" y="6"/>
      <point x="539" y="54"/>
      <point x="539" y="178" type="curve"/>
      <point x="539" y="405"/>
      <point x="78" y="261"/>
      <point x="78" y="499" type="curve"/>
      <point x="78" y="604"/>
      <point x="182" y="690"/>
      <point x="318" y="690" type="curve"/>
      <point x="428" y="690"/>
      <point x="497" y="649"/>
      <point x="553" y="577" type="curve"/>
    </contour>
    <contour>
      <point x="318" y="685" type="move" name="top"/>
    </contour>
    <contour>
      <point x="308" y="0" type="move" name="bottom"/>
    </contour>
  </outline>
</glyph>
<glyph name="U" format="1">
  <advance width="633"/>
  <unicode hex="0055"/>
  <outline>
    <contour>
      <point x="578" y="685" type="line"/>
      <point x="578" y="257" type="line" smooth="yes"/>
      <point x="578.0" y="65.7831325301"/>
      <point x="480.0" y="-12.0"/>
      <point x="316" y="-12" type="curve" smooth="yes"/>
      <point x="151.0" y="-12.0"/>
      <point x="55.0" y="73.3453815261"/>
      <point x="55" y="257" type="curve" smooth="yes"/>
      <point x="55" y="685" type="line"/>
      <point x="75" y="685" type="line"/>
      <point x="75" y="254" type="line" smooth="yes"/>
      <point x="75.0" y="72.350877193"/>
      <point x="182.0" y="6.0"/>
      <point x="316" y="6" type="curve" smooth="yes"/>
      <point x="449.0" y="6.0"/>
      <point x="558.0" y="63.649122807"/>
      <point x="558" y="254" type="curve" smooth="yes"/>
      <point x="558" y="685" type="line"/>
    </contour>
    <contour>
      <point x="317.0" y="685.0" type="move" name="top"/>
    </contour>
    <contour>
      <point x="317.0" y="0.0" type="move" name="bottom"/>
    </contour>
    <contour>
      <point x="395.0" y="0.0" type="move" name="ogonek"/>
    </contour>
  </outline>
</glyph>
<glyph name="V" format="1">
  <advance width="555"/>
  <unicode hex="0056"/>
  <outline>
    <contour>
      <point x="-10" y="685" type="line"/>
      <point x="13" y="685" type="line"/>
      <point x="289" y="0" type="line"/>
      <point x="266" y="0" type="line"/>
    </contour>
    <contour>
      <point x="565" y="685" type="line"/>
      <point x="289" y="0" type="line"/>
      <point x="266" y="0" type="line"/>
      <point x="542" y="685" type="line"/>
    </contour>
  </outline>
</glyph>
<glyph name="W" format="1">
  <advance width="977"/>
  <unicode hex="0057"/>
  <outline>
    <contour>
      <point x="476" y="685" type="line"/>
      <point x="501" y="685" type="line"/>
      <point x="736" y="0" type="line"/>
      <point x="713" y="0" type="line"/>
    </contour>
    <contour>
      <point x="972" y="685" type="line"/>
      <point x="736" y="0" type="line"/>
      <point x="713" y="0" type="line"/>
      <point x="947" y="685" type="line"/>
    </contour>
    <contour>
      <point x="5" y="685" type="line"/>
      <point x="30" y="685" type="line"/>
      <point x="264" y="0" type="line"/>
      <point x="241" y="0" type="line"/>
    </contour>
    <contour>
      <point x="501" y="685" type="line"/>
      <point x="264" y="0" type="line"/>
      <point x="241" y="0" type="line"/>
      <point x="476" y="685" type="line"/>
    </contour>
    <contour>
      <point x="488" y="685" type="move" name="top"/>
    </contour>
  </outline>
</glyph>
<glyph name="X" format="1">
  <advance width="544"/>
  <unicode hex="0058"/>
  <outline>
    <contour>
      <point x="522" y="685" type="line"/>
      <point x="28" y="0" type="line"/>
      <point x="5" y="0" type="line"/>
      <point x="499" y="685" type="line"/>
    </contour>
    <contour>
      <point x="14" y="685" type="line"/>
      <point x="37" y="685" type="line"/>
      <point x="539" y="0" type="line"/>
      <point x="516" y="0" type="line"/>
    </contour>
  </outline>
</glyph>
<glyph name="Z" format="1">
  <advance width="608"/>
  <unicode hex="005A"/>
  <outline>
    <contour>
      <point x="30" y="0" type="line"/>
      <point x="578" y="0" type="line"/>
      <point x="578" y="18" type="line"/>
      <point x="56" y="18" type="line"/>
      <point x="568" y="667" type="line"/>
      <point x="568" y="685" type="line"/>
      <point x="50" y="685" type="line"/>
      <point x="50" y="667" type="line"/>
      <point x="546" y="667" type="line"/>
      <point x="30" y="18" type="line"/>
    </contour>
    <contour>
      <point x="304" y="685" type="move" name="top"/>
    </contour>
  </outline>
</glyph>
<glyph name="bracketleft" format="1">
  <advance width="314"/>
  <unicode hex="005B"/>
  <outline>
    <contour>
      <point x="329" y="-117" type="line"/>
      <point x="329" y="-135" type="line"/>
      <point x="55" y="-135" type="line"/>
      <point x="55" y="-117" type="line"/>
    </contour>
    <contour>
      <point x="329" y="753" type="line"/>
      <point x="329" y="735" type="line"/>
      <point x="55" y="735" type="line"/>
      <point x="55" y="753" type="line"/>
    </contour>
    <component base="bar" yOffset="50"/>
  </outline>
</glyph>
<glyph name="asciicircum" format="1">
  <advance width="552"/>
  <unicode hex="005E"/>
  <outline>
    <contour>
      <point x="517" y="203" type="line"/>
      <point x="527" y="214" type="line"/>
      <point x="276" y="440" type="line"/>
      <point x="25" y="214" type="line"/>
      <point x="35" y="203" type="line"/>
      <point x="276" y="418" type="line"/>
    </contour>
  </outline>
</glyph>
<glyph name="a" format="1">
  <advance width="516"/>
  <unicode hex="0061"/>
  <outline>
    <contour>
      <point x="415" y="255" type="line"/>
      <point x="258.0" y="279.774774775"/>
      <point x="55" y="267"/>
      <point x="55" y="130" type="curve"/>
      <point x="55.0" y="45.0"/>
      <point x="110" y="8"/>
      <point x="212" y="8" type="curve"/>
      <point x="302" y="8"/>
      <point x="405.0" y="81.0"/>
      <point x="405" y="228" type="curve"/>
      <point x="421" y="223" type="line"/>
      <point x="421.0" y="79.0"/>
      <point x="331" y="-12"/>
      <point x="204" y="-12" type="curve"/>
      <point x="97" y="-12"/>
      <point x="35.0" y="33.0"/>
      <point x="35" y="128" type="curve"/>
      <point x="35" y="261"/>
      <point x="186.0" y="303.736842105"/>
      <point x="413" y="275" type="curve"/>
    </contour>
    <contour>
      <point x="56.0" y="387.0" type="line"/>
      <point x="96.0" y="477.0"/>
      <point x="169.0" y="510.0"/>
      <point x="251.0" y="510.0" type="curve" smooth="yes"/>
      <point x="350.0" y="510.0"/>
      <point x="432" y="460"/>
      <point x="428.0" y="320.0" type="curve" smooth="yes"/>
      <point x="421" y="70" type="line" smooth="yes"/>
      <point x="420" y="35"/>
      <point x="433" y="6"/>
      <point x="476" y="8" type="curve"/>
      <point x="473" y="-8" type="line"/>
      <point x="427" y="-12"/>
      <point x="399" y="13"/>
      <point x="401" y="74" type="curve" smooth="yes"/>
      <point x="408.0" y="324.0" type="line" smooth="yes"/>
      <point x="412" y="449"/>
      <point x="334.0" y="490.0"/>
      <point x="251.0" y="490.0" type="curve"/>
      <point x="178.0" y="490.0"/>
      <point x="104.0" y="460.0"/>
      <point x="72.0" y="377.0" type="curve"/>
    </contour>
    <contour>
      <point x="251.0" y="500.0" type="move" name="top"/>
    </contour>
    <contour>
      <point x="197.0" y="0.0" type="move" name="bottom"/>
    </contour>
    <contour>
      <point x="505.0" y="0.0" type="move" name="ogonek"/>
    </contour>
  </outline>
</glyph>
<glyph name="c" format="1">
  <advance width="498"/>
  <unicode hex="0063"/>
  <outline>
    <contour>
      <point x="440" y="355" type="line"/>
      <point x="411" y="431"/>
      <point x="363" y="490"/>
      <point x="271" y="490" type="curve" smooth="yes"/>
      <point x="151" y="490"/>
      <point x="75" y="376"/>
      <point x="75" y="248" type="curve" smooth="yes"/>
      <point x="75" y="119"/>
      <point x="137" y="7"/>
      <point x="276" y="7" type="curve" smooth="yes"/>
      <point x="367" y="7"/>
      <point x="427" y="64"/>
      <point x="454" y="145" type="curve"/>
      <point x="473" y="138" type="line"/>
      <point x="445" y="49"/>
      <point x="374" y="-12"/>
      <point x="274" y="-12" type="curve" smooth="yes"/>
      <point x="125" y="-12"/>
      <point x="55" y="107"/>
      <point x="55" y="245" type="curve" smooth="yes"/>
      <point x="55" y="385"/>
      <point x="138" y="510"/>
      <point x="269" y="510" type="curve" smooth="yes"/>
      <point x="371" y="510"/>
      <point x="431" y="448"/>
      <point x="459" y="362" type="curve"/>
    </contour>
    <contour>
      <point x="269.0" y="510.0" type="move" name="top"/>
    </contour>
    <contour>
      <point x="267.0" y="-12.0" type="move" name="bottom"/>
    </contour>
  </outline>
</glyph>
<glyph name="e" format="1">
  <advance width="516.099649011"/>
  <unicode hex="0065"/>
  <outline>
    <contour>
      <point x="65" y="262" type="line"/>
      <point x="467" y="262" type="line"/>
      <point x="457" y="242" type="line"/>
      <point x="65" y="242" type="line"/>
    </contour>
    <contour>
      <point x="482" y="103" type="line"/>
      <point x="438" y="37"/>
      <point x="363" y="-12"/>
      <point x="273" y="-12" type="curve" smooth="yes"/>
      <point x="126.577981651" y="-12.0"/>
      <point x="45.0" y="118.0"/>
      <point x="45" y="258" type="curve" smooth="yes"/>
      <point x="45.0" y="390.0"/>
      <point x="128.405172414" y="510.0"/>
      <point x="270" y="510" type="curve" smooth="yes"/>
      <point x="399.533678756" y="510.0"/>
      <point x="479.836065574" y="383.0"/>
      <point x="470" y="242" type="curve"/>
      <point x="450" y="242" type="line"/>
      <point x="463.243902439" y="372.0"/>
      <point x="387.586206897" y="490.0"/>
      <point x="269" y="490" type="curve" smooth="yes"/>
      <point x="135.578199052" y="490.0"/>
      <point x="65.0" y="373.0"/>
      <point x="65" y="248" type="curve" smooth="yes"/>
      <point x="65.0" y="123.0"/>
      <point x="142.68159204" y="8.0"/>
      <point x="276" y="8" type="curve" smooth="yes"/>
      <point x="356" y="8"/>
      <point x="420" y="52"/>
      <point x="466" y="113" type="curve"/>
    </contour>
    <contour>
      <point x="341" y="0" type="move" name="ogonek"/>
    </contour>
    <contour>
      <point x="260.0" y="500.0" type="move" name="top"/>
    </contour>
    <contour>
      <point x="273.0" y="0.0" type="move" name="bottom"/>
    </contour>
  </outline>
</glyph>
<glyph name="f" format="1">
  <advance width="325"/>
  <unicode hex="0066"/>
  <outline>
    <contour>
      <point x="23" y="480" type="line"/>
      <point x="23" y="500" type="line"/>
      <point x="307" y="500" type="line"/>
      <point x="307" y="480" type="line"/>
    </contour>
    <contour>
      <point x="167" y="0" type="line"/>
      <point x="147" y="0" type="line"/>
      <point x="147" y="596" type="line" smooth="yes"/>
      <point x="147" y="655"/>
      <point x="176" y="684"/>
      <point x="238" y="684" type="curve" smooth="yes"/>
      <point x="265" y="684"/>
      <point x="297" y="677"/>
      <point x="333" y="662" type="curve"/>
      <point x="317" y="646" type="line"/>
      <point x="290" y="658"/>
      <point x="264" y="665"/>
      <point x="241" y="665" type="curve" smooth="yes"/>
      <point x="185" y="665"/>
      <point x="167" y="646"/>
      <point x="167" y="585" type="curve" smooth="yes"/>
    </contour>
  </outline>
</glyph>
<glyph name="g" format="1">
  <advance width="527"/>
  <unicode hex="0067"/>
  <outline>
    <contour>
      <point x="490" y="458" type="line"/>
      <point x="437" y="476"/>
      <point x="397" y="424"/>
      <point x="397" y="349" type="curve"/>
      <point x="381" y="349" type="line"/>
      <point x="381" y="435"/>
      <point x="430" y="494"/>
      <point x="497" y="480" type="curve"/>
    </contour>
    <contour>
      <point x="184" y="205" type="line"/>
      <point x="135.0" y="195.0"/>
      <point x="86.0" y="170.0"/>
      <point x="86" y="130" type="curve"/>
      <point x="85.0508905852" y="5.0"/>
      <point x="459.0" y="111.0"/>
      <point x="459" y="-87" type="curve"/>
      <point x="459" y="-177"/>
      <point x="358" y="-231"/>
      <point x="236" y="-231" type="curve"/>
      <point x="125" y="-231"/>
      <point x="35" y="-180"/>
      <point x="35" y="-76" type="curve"/>
      <point x="35" y="3"/>
      <point x="92" y="41"/>
      <point x="163" y="55" type="curve"/>
      <point x="180" y="47" type="line"/>
      <point x="111" y="31"/>
      <point x="54" y="0"/>
      <point x="54" y="-76" type="curve"/>
      <point x="54" y="-170"/>
      <point x="138" y="-212"/>
      <point x="241" y="-212" type="curve"/>
      <point x="352" y="-212"/>
      <point x="444" y="-167"/>
      <point x="439" y="-91" type="curve"/>
      <point x="439.0" y="97.0"/>
      <point x="65.0508905852" y="-18.0"/>
      <point x="66" y="127" type="curve"/>
      <point x="66.0" y="178.0"/>
      <point x="119.106382979" y="212.0"/>
      <point x="170" y="219" type="curve"/>
    </contour>
    <contour>
      <point x="77" y="349" type="line"/>
      <point x="77" y="349"/>
      <point x="77" y="349"/>
      <point x="77" y="349" type="curve" smooth="yes"/>
      <point x="77" y="440"/>
      <point x="153" y="510"/>
      <point x="237" y="510" type="curve" smooth="yes"/>
      <point x="323" y="510"/>
      <point x="397" y="440"/>
      <point x="397" y="349" type="curve" smooth="yes"/>
      <point x="397" y="256"/>
      <point x="323" y="188"/>
      <point x="237" y="188" type="curve" smooth="yes"/>
      <point x="153" y="188"/>
      <point x="77" y="256"/>
      <point x="77" y="349" type="curve"/>
      <point x="97" y="349" type="line"/>
      <point x="97" y="279"/>
      <point x="155" y="208"/>
      <point x="237" y="208" type="curve" smooth="yes"/>
      <point x="320" y="208"/>
      <point x="377" y="279"/>
      <point x="377" y="349" type="curve" smooth="yes"/>
      <point x="377" y="425"/>
      <point x="321" y="490"/>
      <point x="237" y="490" type="curve" smooth="yes"/>
      <point x="156" y="490"/>
      <point x="97" y="425"/>
      <point x="97" y="349" type="curve" smooth="yes"/>
      <point x="97" y="349"/>
      <point x="97" y="349"/>
      <point x="97" y="349" type="curve"/>
    </contour>
    <contour>
      <point x="234" y="500" type="move" name="top"/>
    </contour>
  </outline>
</glyph>
<glyph name="i" format="1">
  <advance width="131"/>
  <unicode hex="0069"/>
  <outline>
    <component base="dotlessi" xOffset="-30"/>
    <component base="dotaccent" xOffset="-29"/>
    <contour>
      <point x="66" y="500" type="move" name="top"/>
    </contour>
    <contour>
      <point x="111" y="0" type="move" name="ogonek"/>
    </contour>
  </outline>
</glyph>
<glyph name="j" format="1">
  <advance width="200"/>
  <unicode hex="006A"/>
  <outline>
    <contour>
      <point x="85" y="0" type="line"/>
      <point x="105" y="0" type="line"/>
      <point x="105" y="-45" type="line" smooth="yes"/>
      <point x="105" y="-120"/>
      <point x="64" y="-167"/>
      <point x="-54" y="-137" type="curve"/>
      <point x="-50" y="-118" type="line"/>
      <point x="52.0" y="-142.257425743"/>
      <point x="85" y="-114"/>
      <point x="85" y="-20" type="curve" smooth="yes"/>
    </contour>
    <component base="dotaccent"/>
    <component base="dotlessi" xOffset="30"/>
  </outline>
</glyph>
<glyph name="k" format="1">
  <advance width="501"/>
  <unicode hex="006B"/>
  <outline>
    <contour>
      <point x="66" y="201" type="line"/>
      <point x="327" y="500" type="line"/>
      <point x="345" y="500" type="line"/>
      <point x="66" y="171" type="line"/>
    </contour>
    <contour>
      <point x="371" y="0" type="line"/>
      <point x="161" y="306" type="line"/>
      <point x="173" y="320" type="line"/>
      <point x="393" y="0" type="line"/>
    </contour>
    <component base="l"/>
    <contour>
      <point x="265.0" y="-1.0" type="move" name="bottom"/>
    </contour>
  </outline>
</glyph>
<glyph name="m" format="1">
  <advance width="840"/>
  <unicode hex="006D"/>
  <outline>
    <contour>
      <point x="765" y="0" type="line"/>
      <point x="765" y="339" type="line" smooth="yes"/>
      <point x="765" y="444"/>
      <point x="698" y="494"/>
      <point x="615" y="494" type="curve" smooth="yes"/>
      <point x="519" y="494"/>
      <point x="430" y="416"/>
      <point x="430" y="284" type="curve"/>
      <point x="418" y="284" type="line"/>
      <point x="418" y="448"/>
      <point x="527" y="510"/>
      <point x="623" y="510" type="curve"/>
      <point x="716" y="510"/>
      <point x="785" y="442"/>
      <point x="785" y="339" type="curve" smooth="yes"/>
      <point x="785" y="0" type="line"/>
    </contour>
    <component base="n"/>
  </outline>
</glyph>
<glyph name="n" format="1">
  <advance width="485"/>
  <unicode hex="006E"/>
  <outline>
    <contour>
      <point x="410" y="0" type="line"/>
      <point x="410" y="339" type="line" smooth="yes"/>
      <point x="410" y="444"/>
      <point x="343" y="494"/>
      <point x="260" y="494" type="curve" smooth="yes"/>
      <point x="165" y="494"/>
      <point x="75" y="412"/>
      <point x="75" y="284" type="curve"/>
      <point x="63" y="284" type="line"/>
      <point x="63" y="431"/>
      <point x="158" y="510"/>
      <point x="268" y="510" type="curve"/>
      <point x="361" y="510"/>
      <point x="430" y="442"/>
      <point x="430" y="339" type="curve" smooth="yes"/>
      <point x="430" y="0" type="line"/>
    </contour>
    <component base="dotlessi"/>
    <contour>
      <point x="229.0" y="500.0" type="move" name="top"/>
    </contour>
    <contour>
      <point x="227.0" y="0.0" type="move" name="bottom"/>
    </contour>
  </outline>
</glyph>
<glyph name="o" format="1">
  <advance width="538"/>
  <unicode hex="006F"/>
  <outline>
    <contour>
      <point x="264" y="8" type="curve" smooth="yes"/>
      <point x="399" y="8"/>
      <point x="483" y="109"/>
      <point x="483" y="249" type="curve" smooth="yes"/>
      <point x="483" y="389"/>
      <point x="399" y="490"/>
      <point x="264" y="490" type="curve" smooth="yes"/>
      <point x="129" y="490"/>
      <point x="45" y="389"/>
      <point x="45" y="249" type="curve" smooth="yes"/>
      <point x="45" y="109"/>
      <point x="129" y="8"/>
    </contour>
    <contour>
      <point x="264" y="-12" type="curve" smooth="yes"/>
      <point x="117" y="-12"/>
      <point x="25" y="97"/>
      <point x="25" y="249" type="curve" smooth="yes"/>
      <point x="25" y="401"/>
      <point x="117" y="510"/>
      <point x="264" y="510" type="curve" smooth="yes"/>
      <point x="411" y="510"/>
      <point x="503" y="401"/>
      <point x="503" y="249" type="curve" smooth="yes"/>
      <point x="503" y="97"/>
      <point x="411" y="-12"/>
    </contour>
    <contour>
      <point x="264" y="500" type="move" name="top"/>
    </contour>
    <contour>
      <point x="264" y="0" type="move" name="bottom"/>
    </contour>
  </outline>
</glyph>
<glyph name="r" format="1">
  <advance width="337"/>
  <unicode hex="0072"/>
  <outline>
    <contour>
      <point x="313" y="462" type="line"/>
      <point x="287" y="481"/>
      <point x="259" y="490"/>
      <point x="228" y="490" type="curve" smooth="yes"/>
      <point x="140" y="490"/>
      <point x="75.0" y="404.0"/>
      <point x="75" y="314" type="curve"/>
      <point x="66" y="314" type="line"/>
      <point x="66" y="433"/>
      <point x="140" y="510"/>
      <point x="232" y="510" type="curve" smooth="yes"/>
      <point x="265" y="510"/>
      <point x="296" y="500"/>
      <point x="322" y="481" type="curve"/>
    </contour>
    <component base="dotlessi" xOffset="-30"/>
    <contour>
      <point x="206.0" y="500.0" type="move" name="top"/>
    </contour>
    <contour>
      <point x="207.0" y="0.0" type="move" name="bottom"/>
    </contour>
  </outline>
</glyph>
<glyph name="s" format="1">
  <advance width="466"/>
  <unicode hex="0073"/>
  <outline>
    <contour>
      <point x="417" y="402" type="line"/>
      <point x="372" y="480"/>
      <point x="311.0" y="492.0"/>
      <point x="242" y="492" type="curve" smooth="yes"/>
      <point x="162.0" y="492.0"/>
      <point x="87.0" y="445.163636364"/>
      <point x="87" y="380" type="curve"/>
      <point x="87" y="321"/>
      <point x="144.49122807" y="292.147058824"/>
      <point x="200" y="277" type="curve" smooth="yes"/>
      <point x="292" y="254" type="line" smooth="yes"/>
      <point x="361" y="237"/>
      <point x="431" y="199"/>
      <point x="431" y="131" type="curve"/>
      <point x="431" y="44"/>
      <point x="339" y="-12"/>
      <point x="241" y="-12" type="curve" smooth="yes"/>
      <point x="154" y="-12"/>
      <point x="67" y="34"/>
      <point x="35" y="107" type="curve"/>
      <point x="50" y="119" type="line"/>
      <point x="82" y="46"/>
      <point x="162.174603175" y="6.0"/>
      <point x="241" y="6" type="curve"/>
      <point x="328.0" y="6.0"/>
      <point x="411.0" y="52.7603305785"/>
      <point x="411" y="129" type="curve"/>
      <point x="411" y="195"/>
      <point x="342" y="224"/>
      <point x="277" y="240" type="curve" smooth="yes"/>
      <point x="195" y="260" type="line" smooth="yes"/>
      <point x="127.53125" y="278.147540984"/>
      <point x="68" y="314"/>
      <point x="68" y="383" type="curve"/>
      <point x="68" y="457"/>
      <point x="152" y="510"/>
      <point x="242" y="510" type="curve" smooth="yes"/>
      <point x="318" y="510"/>
      <point x="384" y="494"/>
      <point x="430" y="414" type="curve"/>
    </contour>
    <contour>
      <point x="241.0" y="0.0" type="move" name="bottom"/>
    </contour>
    <contour>
      <point x="232.0" y="500.0" type="move" name="top"/>
    </contour>
  </outline>
</glyph>
<glyph name="t" format="1">
  <advance width="309"/>
  <unicode hex="0074"/>
  <outline>
    <contour>
      <point x="15" y="500" type="line"/>
      <point x="299" y="500" type="line"/>
      <point x="299" y="480" type="line"/>
      <point x="15" y="480" type="line"/>
    </contour>
    <contour>
      <point x="159" y="618" type="line"/>
      <point x="159" y="99" type="line" smooth="yes"/>
      <point x="159" y="38"/>
      <point x="177" y="19"/>
      <point x="233" y="19" type="curve" smooth="yes"/>
      <point x="246" y="19"/>
      <point x="260" y="21"/>
      <point x="275" y="25" type="curve"/>
      <point x="280" y="7" type="line"/>
      <point x="262" y="2"/>
      <point x="245" y="0"/>
      <point x="230" y="0" type="curve" smooth="yes"/>
      <point x="168" y="0"/>
      <point x="139" y="29"/>
      <point x="139" y="88" type="curve" smooth="yes"/>
      <point x="139" y="604" type="line"/>
    </contour>
  </outline>
</glyph>
<glyph name="w" format="1">
  <advance width="634"/>
  <unicode hex="0077"/>
  <outline>
    <contour>
      <point x="181" y="0" type="line"/>
      <point x="157" y="0" type="line"/>
      <point x="303" y="500" type="line"/>
      <point x="322" y="500" type="line"/>
    </contour>
    <contour>
      <point x="155" y="0" type="line"/>
      <point x="0" y="500" type="line"/>
      <point x="23" y="500" type="line"/>
      <point x="173" y="0" type="line"/>
    </contour>
    <contour>
      <point x="488" y="0" type="line"/>
      <point x="470" y="0" type="line"/>
      <point x="611" y="500" type="line"/>
      <point x="634" y="500" type="line"/>
    </contour>
    <contour>
      <point x="462" y="0" type="line"/>
      <point x="312" y="500" type="line"/>
      <point x="331" y="500" type="line"/>
      <point x="486" y="0" type="line"/>
    </contour>
    <contour>
      <point x="357" y="500" type="move" name="top"/>
    </contour>
  </outline>
</glyph>
<glyph name="x" format="1">
  <advance width="502"/>
  <unicode hex="0078"/>
  <outline>
    <contour>
      <point x="37" y="0" type="line"/>
      <point x="16" y="0" type="line"/>
      <point x="354" y="500" type="line"/>
      <point x="375" y="500" type="line"/>
    </contour>
    <contour>
      <point x="382" y="0" type="line"/>
      <point x="34" y="500" type="line"/>
      <point x="57" y="500" type="line"/>
      <point x="405" y="0" type="line"/>
    </contour>
  </outline>
</glyph>
<glyph name="y" format="1">
  <advance width="463"/>
  <unicode hex="0079"/>
  <outline>
    <contour>
      <point x="233" y="-28" type="line"/>
      <point x="23" y="500" type="line"/>
      <point x="23" y="500" type="line"/>
      <point x="23" y="500"/>
      <point x="46" y="500"/>
      <point x="46" y="500" type="curve"/>
      <point x="248" y="-12" type="line"/>
    </contour>
    <contour>
      <point x="261" y="0" type="line" smooth="yes"/>
      <point x="218" y="-118"/>
      <point x="136" y="-150"/>
      <point x="74" y="-150" type="curve" smooth="yes"/>
      <point x="40" y="-150"/>
      <point x="9" y="-143"/>
      <point x="-17" y="-130" type="curve"/>
      <point x="-6" y="-112" type="line"/>
      <point x="14" y="-123"/>
      <point x="38" y="-130"/>
      <point x="68" y="-130" type="curve" smooth="yes"/>
      <point x="133" y="-130"/>
      <point x="203" y="-100"/>
      <point x="239" y="0" type="curve" smooth="yes"/>
      <point x="421" y="500" type="line"/>
      <point x="444" y="500" type="line"/>
    </contour>
    <contour>
      <point x="237.0" y="500.0" type="move" name="top"/>
    </contour>
  </outline>
</glyph>
<glyph name="asciitilde" format="1">
  <advance width="520"/>
  <unicode hex="007E"/>
  <outline>
    <contour>
      <point x="50" y="186" type="line"/>
      <point x="59.9574468085" y="268.0"/>
      <point x="100.893617021" y="292.0"/>
      <point x="154" y="292" type="curve" smooth="yes"/>
      <point x="217.913043478" y="292.0"/>
      <point x="303.863636364" y="220.0"/>
      <point x="364" y="220" type="curve" smooth="yes"/>
      <point x="414.23255814" y="220.0"/>
      <point x="452.421052632" y="239.0"/>
      <point x="460" y="303" type="curve"/>
      <point x="480" y="303" type="line"/>
      <point x="469.085106383" y="223.0"/>
      <point x="424.096153846" y="199.0"/>
      <point x="366" y="199" type="curve" smooth="yes"/>
      <point x="301.076923077" y="199.0"/>
      <point x="215.285714286" y="271.0"/>
      <point x="155" y="271" type="curve" smooth="yes"/>
      <point x="109.666666667" y="271.0"/>
      <point x="76.8" y="251.0"/>
      <point x="70" y="186" type="curve"/>
    </contour>
  </outline>
</glyph>
<glyph name="currency" format="1">
  <advance width="497"/>
  <unicode hex="00A4"/>
  <outline>
    <contour>
      <point x="249" y="365" type="curve" smooth="yes"/>
      <point x="186" y="365"/>
      <point x="135" y="313"/>
      <point x="135" y="249" type="curve" smooth="yes"/>
      <point x="135" y="186"/>
      <point x="186" y="133"/>
      <point x="249" y="133" type="curve" smooth="yes"/>
      <point x="311" y="133"/>
      <point x="363" y="186"/>
      <point x="363" y="249" type="curve" smooth="yes"/>
      <point x="363" y="313"/>
      <point x="311" y="365"/>
    </contour>
    <contour>
      <point x="333" y="153" type="line"/>
      <point x="345" y="166" type="line"/>
      <point x="432" y="79" type="line"/>
      <point x="419" y="67" type="line"/>
    </contour>
    <contour>
      <point x="156" y="170" type="line"/>
      <point x="169" y="158" type="line"/>
      <point x="78" y="67" type="line"/>
      <point x="65" y="79" type="line"/>
    </contour>
    <contour>
      <point x="249" y="116" type="curve" smooth="yes"/>
      <point x="174" y="116"/>
      <point x="115" y="175"/>
      <point x="115" y="250" type="curve" smooth="yes"/>
      <point x="115" y="324"/>
      <point x="174" y="384"/>
      <point x="249" y="384" type="curve" smooth="yes"/>
      <point x="323" y="384"/>
      <point x="383" y="324"/>
      <point x="383" y="250" type="curve" smooth="yes"/>
      <point x="383" y="175"/>
      <point x="323" y="116"/>
    </contour>
    <contour>
      <point x="156" y="329" type="line"/>
      <point x="65" y="420" type="line"/>
      <point x="78" y="432" type="line"/>
      <point x="169" y="341" type="line"/>
    </contour>
    <contour>
      <point x="333" y="346" type="line"/>
      <point x="419" y="432" type="line"/>
      <point x="432" y="420" type="line"/>
      <point x="345" y="333" type="line"/>
    </contour>
  </outline>
</glyph>
<glyph name="dieresis" format="1">
  <advance width="380"/>
  <unicode hex="00A8"/>
  <outline>
    <component base="dotaccent" xOffset="164"/>
    <component base="dotaccent" xOffset="26"/>
    <contour>
      <point x="190" y="500" type="move" name="_top"/>
    </contour>
  </outline>
</glyph>
<glyph name="guillemotleft" format="1">
  <advance width="665"/>
  <unicode hex="00AB"/>
  <outline>
    <contour>
      <point x="565" y="80" type="line"/>
      <point x="336" y="306" type="line"/>
      <point x="559" y="537" type="line"/>
      <point x="546" y="548" type="line"/>
      <point x="312" y="306" type="line"/>
      <point x="553" y="68" type="line"/>
    </contour>
    <contour>
      <point x="329" y="80" type="line"/>
      <point x="100" y="306" type="line"/>
      <point x="323" y="537" type="line"/>
      <point x="310" y="548" type="line"/>
      <point x="76" y="306" type="line"/>
      <point x="317" y="68" type="line"/>
    </contour>
  </outline>
</glyph>
<glyph name="macron" format="1">
  <advance width="524"/>
  <unicode hex="00AF"/>
  <outline>
    <contour>
      <point x="474" y="667" type="line"/>
      <point x="50" y="667" type="line"/>
      <point x="50" y="685" type="line"/>
      <point x="474" y="685" type="line"/>
    </contour>
    <contour>
      <point x="262" y="500" type="move" name="_top"/>
    </contour>
  </outline>
</glyph>
<glyph name="acute" format="1">
  <advance width="532"/>
  <unicode hex="00B4"/>
  <outline>
    <contour>
      <point x="290" y="685" type="line"/>
      <point x="209" y="555" type="line"/>
      <point x="229" y="555" type="line"/>
      <point x="314" y="685" type="line"/>
    </contour>
    <contour>
      <point x="241" y="510" type="move" name="_top"/>
    </contour>
  </outline>
</glyph>
<glyph name="paragraph" format="1">
  <advance width="606"/>
  <unicode hex="00B6"/>
  <outline>
    <contour>
      <point x="231" y="394" type="curve"/>
      <point x="195" y="394" type="line" smooth="yes"/>
      <point x="75" y="394"/>
      <point x="30" y="469"/>
      <point x="30" y="538" type="curve"/>
      <point x="30" y="610"/>
      <point x="77" y="685"/>
      <point x="193" y="685" type="curve" smooth="yes"/>
      <point x="231" y="685" type="line"/>
      <point x="231" y="685"/>
      <point x="231" y="394"/>
    </contour>
    <contour>
      <point x="251" y="0" type="line"/>
      <point x="231" y="0" type="line"/>
      <point x="231" y="685" type="line"/>
      <point x="251" y="685" type="line"/>
    </contour>
    <contour>
      <point x="591" y="667" type="line"/>
      <point x="231" y="667" type="line"/>
      <point x="231" y="685" type="line"/>
      <point x="591" y="685" type="line"/>
    </contour>
    <contour>
      <point x="411" y="0" type="line"/>
      <point x="411" y="685" type="line"/>
      <point x="431" y="685" type="line"/>
      <point x="431" y="0" type="line"/>
    </contour>
  </outline>
</glyph>
<glyph name="cedilla" format="1">
  <advance width="630"/>
  <unicode hex="00B8"/>
  <outline>
    <contour>
      <point x="249" y="-1" type="line"/>
      <point x="164" y="-113" type="line"/>
      <point x="155" y="-109" type="line"/>
      <point x="186" y="-80"/>
      <point x="220" y="-70"/>
      <point x="259" y="-70" type="curve" smooth="yes"/>
      <point x="317.0" y="-70.0"/>
      <point x="375" y="-100"/>
      <point x="375" y="-172" type="curve" smooth="yes"/>
      <point x="375" y="-237"/>
      <point x="319" y="-284"/>
      <point x="253" y="-284" type="curve" smooth="yes"/>
      <point x="199" y="-284"/>
      <point x="130" y="-266"/>
      <point x="113" y="-205" type="curve"/>
      <point x="129" y="-195" type="line"/>
      <point x="152" y="-254"/>
      <point x="203" y="-264"/>
      <point x="254" y="-264" type="curve" smooth="yes"/>
      <point x="309" y="-264"/>
      <point x="355" y="-228"/>
      <point x="355" y="-172" type="curve" smooth="yes"/>
      <point x="355" y="-120"/>
      <point x="310.0" y="-88.0"/>
      <point x="259" y="-88" type="curve" smooth="yes"/>
      <point x="222" y="-88"/>
      <point x="182" y="-103"/>
      <point x="163" y="-122" type="curve" smooth="yes"/>
      <point x="163" y="-122"/>
      <point x="144.0" y="-109.0"/>
      <point x="144" y="-109" type="curve"/>
      <point x="232" y="9" type="line"/>
    </contour>
    <contour>
      <point x="239.0" y="0.0" type="move" name="_bottom"/>
    </contour>
  </outline>
</glyph>
<glyph name="AE" format="1">
  <advance width="933"/>
  <unicode hex="00C6"/>
  <outline>
    <contour>
      <point x="-10" y="0" type="line"/>
      <point x="454" y="685" type="line"/>
      <point x="477" y="685" type="line"/>
      <point x="13" y="0" type="line"/>
    </contour>
    <contour>
      <point x="455" y="0" type="line"/>
      <point x="455" y="18" type="line"/>
      <point x="903" y="18" type="line"/>
      <point x="903" y="0" type="line"/>
    </contour>
    <contour>
      <point x="893" y="667" type="line"/>
      <point x="455" y="667" type="line"/>
      <point x="455" y="685" type="line"/>
      <point x="893" y="685" type="line"/>
    </contour>
    <contour>
      <point x="455" y="0" type="line"/>
      <point x="455" y="685" type="line"/>
      <point x="475" y="685" type="line"/>
      <point x="475" y="0" type="line"/>
    </contour>
    <contour>
      <point x="218" y="309" type="curve"/>
      <point x="218" y="328" type="line"/>
      <point x="218" y="328"/>
      <point x="843" y="328"/>
      <point x="843" y="328" type="curve"/>
      <point x="843" y="309" type="line"/>
      <point x="843" y="309"/>
      <point x="218" y="309"/>
    </contour>
  </outline>
</glyph>
<glyph name="dotlessi" format="1">
  <advance width="200"/>
  <unicode hex="0131"/>
  <outline>
    <contour>
      <point x="85" y="0" type="line"/>
      <point x="85" y="500" type="line"/>
      <point x="105" y="500" type="line"/>
      <point x="105" y="0" type="line"/>
    </contour>
    <contour>
      <point x="100" y="500" type="move" name="top"/>
    </contour>
  </outline>
</glyph>
<glyph name="circumflex" format="1">
  <advance width="406"/>
  <unicode hex="02C6"/>
  <outline>
    <contour>
      <point x="312" y="555" type="line"/>
      <point x="332" y="555" type="line"/>
      <point x="214" y="685" type="line"/>
      <point x="192" y="685" type="line"/>
      <point x="74" y="555" type="line"/>
      <point x="94" y="555" type="line"/>
      <point x="203" y="673" type="line"/>
    </contour>
    <contour>
      <point x="203" y="500" type="move" name="_top"/>
    </contour>
  </outline>
</glyph>
<glyph name="caron" format="1">
  <advance width="406"/>
  <unicode hex="02C7"/>
  <outline>
    <component base="circumflex" yScale="-1" yOffset="1240"/>
    <contour>
      <point x="203" y="500" type="move" name="_top"/>
    </contour>
  </outline>
</glyph>
<glyph name="ring" format="1">
  <advance width="256"/>
  <unicode hex="02DA"/>
  <outline>
    <contour>
      <point x="72.0" y="659.0"/>
      <point x="30.0" y="614.0"/>
      <point x="30" y="559" type="curve" smooth="yes"/>
      <point x="30.0" y="504.0"/>
      <point x="72.0" y="459.0"/>
      <point x="128" y="459" type="curve" smooth="yes"/>
      <point x="183.471698113" y="459.0"/>
      <point x="226.0" y="504.0"/>
      <point x="226" y="559" type="curve" smooth="yes"/>
      <point x="226.0" y="614.0"/>
      <point x="183.471698113" y="659.0"/>
      <point x="128" y="659" type="curve" smooth="yes"/>
    </contour>
    <contour>
      <point x="10" y="626"/>
      <point x="61" y="677"/>
      <point x="128" y="677" type="curve" smooth="yes"/>
      <point x="195" y="677"/>
      <point x="246" y="626"/>
      <point x="246" y="559" type="curve" smooth="yes"/>
      <point x="246" y="492"/>
      <point x="195" y="441"/>
      <point x="128" y="441" type="curve" smooth="yes"/>
      <point x="61" y="441"/>
      <point x="10" y="492"/>
      <point x="10" y="559" type="curve" smooth="yes"/>
    </contour>
    <contour>
      <point x="128.0" y="500.0" type="move" name="_top"/>
    </contour>
  </outline>
</glyph>
<glyph name="ogonek" format="1">
  <advance width="327"/>
  <unicode hex="02DB"/>
  <outline>
    <contour>
      <point x="277" y="0" type="line"/>
      <point x="227.0" y="-20.6216216216"/>
      <point x="183" y="-58"/>
      <point x="183" y="-109" type="curve"/>
      <point x="183" y="-152"/>
      <point x="222.0" y="-182.0"/>
      <point x="266" y="-182" type="curve"/>
      <point x="301" y="-182"/>
      <point x="332" y="-162"/>
      <point x="352" y="-133" type="curve"/>
      <point x="361" y="-144" type="line"/>
      <point x="337" y="-176"/>
      <point x="301" y="-199"/>
      <point x="261" y="-199" type="curve"/>
      <point x="209.0" y="-199.0"/>
      <point x="163" y="-161"/>
      <point x="163" y="-109" type="curve"/>
      <point x="163" y="-52"/>
      <point x="210.0" y="-8.67213114754"/>
      <point x="266" y="11" type="curve"/>
    </contour>
    <contour>
      <point x="276" y="0" type="move" name="_ogonek"/>
    </contour>
  </outline>
</glyph>
<glyph name="tilde" format="1">
  <advance width="472"/>
  <unicode hex="02DC"/>
  <outline>
    <contour>
      <point x="231" y="618" type="curve" smooth="yes"/>
      <point x="199.875" y="640.0"/>
      <point x="173.9375" y="654.0"/>
      <point x="148" y="654" type="curve" smooth="yes"/>
      <point x="104" y="654"/>
      <point x="70" y="626"/>
      <point x="70" y="570" type="curve"/>
      <point x="50" y="570" type="line"/>
      <point x="50" y="621"/>
      <point x="88" y="669"/>
      <point x="148" y="669" type="curve" smooth="yes"/>
      <point x="171.8625" y="669.0"/>
      <point x="199.875" y="658.0"/>
      <point x="231" y="636" type="curve" smooth="yes"/>
      <point x="260.943181818" y="614.0"/>
      <point x="289.920454545" y="600.0"/>
      <point x="316" y="600" type="curve" smooth="yes"/>
      <point x="365" y="600"/>
      <point x="402" y="628"/>
      <point x="402" y="685" type="curve"/>
      <point x="422" y="685" type="line"/>
      <point x="422" y="633"/>
      <point x="386" y="585"/>
      <point x="316" y="585" type="curve" smooth="yes"/>
      <point x="291.852272727" y="585.0"/>
      <point x="261.909090909" y="595.0"/>
    </contour>
    <contour>
      <point x="236" y="502" type="move" name="_top"/>
    </contour>
  </outline>
</glyph>
<glyph name="afii10018" format="1">
  <advance width="561"/>
  <unicode hex="0411"/>
  <outline>
    <contour>
      <point x="461" y="667" type="line"/>
      <point x="65" y="667" type="line"/>
      <point x="65" y="685" type="line"/>
      <point x="461" y="685" type="line"/>
    </contour>
    <component base="afii10046"/>
  </outline>
</glyph>
<glyph name="afii10033" format="1">
  <advance width="642"/>
  <unicode hex="041F"/>
  <outline>
    <contour>
      <point x="579" y="667" type="line"/>
      <point x="65" y="667" type="line"/>
      <point x="65" y="685" type="line"/>
      <point x="579" y="685" type="line"/>
    </contour>
    <component base="I" xOffset="512"/>
    <component base="I"/>
  </outline>
</glyph>
<glyph name="afii10046" format="1">
  <advance width="570"/>
  <unicode hex="042C"/>
  <outline>
    <contour>
      <point x="415" y="18"/>
      <point x="481" y="88"/>
      <point x="481" y="186" type="curve" smooth="yes"/>
      <point x="481" y="278"/>
      <point x="397" y="357"/>
      <point x="275" y="357" type="curve" smooth="yes"/>
      <point x="55" y="357" type="line"/>
      <point x="55" y="375" type="line"/>
      <point x="258" y="375" type="line" smooth="yes"/>
      <point x="417" y="375"/>
      <point x="501" y="294"/>
      <point x="501" y="186" type="curve" smooth="yes"/>
      <point x="501" y="70"/>
      <point x="426" y="0"/>
      <point x="271" y="0" type="curve" smooth="yes"/>
      <point x="55" y="0" type="line"/>
      <point x="55" y="18" type="line"/>
      <point x="279" y="18" type="line" smooth="yes"/>
    </contour>
    <component base="l"/>
  </outline>
</glyph>
<glyph name="afii10068" format="1">
  <advance width="382"/>
  <unicode hex="0433"/>
  <outline>
    <contour>
      <point x="372" y="482" type="line"/>
      <point x="63" y="482" type="line"/>
      <point x="63" y="500" type="line"/>
      <point x="372" y="500" type="line"/>
    </contour>
    <component base="dotlessi"/>
  </outline>
</glyph>
<glyph name="afii10078" format="1">
  <advance width="600"/>
  <unicode hex="043C"/>
  <outline>
    <contour>
      <point x="306" y="0" type="line"/>
      <point x="286" y="0" type="line"/>
      <point x="513" y="500" type="line"/>
      <point x="536" y="500" type="line"/>
    </contour>
    <contour>
      <point x="276" y="0" type="line"/>
      <point x="63" y="500" type="line"/>
      <point x="86" y="500" type="line"/>
      <point x="296" y="0" type="line"/>
    </contour>
    <component base="dotlessi" xOffset="470"/>
    <component base="dotlessi"/>
  </outline>
</glyph>
<glyph name="afii10079" format="1">
  <advance width="552"/>
  <unicode hex="043D"/>
  <outline>
    <contour>
      <point x="482" y="239" type="line"/>
      <point x="65" y="239" type="line"/>
      <point x="65" y="257" type="line"/>
      <point x="482" y="257" type="line"/>
    </contour>
    <component base="dotlessi" xOffset="410"/>
    <component base="dotlessi"/>
  </outline>
</glyph>
<glyph name="afii10081" format="1">
  <advance width="552"/>
  <unicode hex="043F"/>
  <outline>
    <contour>
      <point x="482" y="410" type="line"/>
      <point x="65" y="410" type="line"/>
      <point x="65" y="500" type="line"/>
      <point x="482" y="500" type="line"/>
    </contour>
    <contour>
      <point x="407" y="0" type="line"/>
      <point x="407" y="500" type="line"/>
      <point x="497" y="500" type="line"/>
      <point x="497" y="0" type="line"/>
    </contour>
    <contour>
      <point x="55" y="0" type="line"/>
      <point x="55" y="500" type="line"/>
      <point x="145" y="500" type="line"/>
      <point x="145" y="0" type="line"/>
    </contour>
  </outline>
</glyph>
<glyph name="afii10100" format="1">
  <advance width="422"/>
  <unicode hex="0453"/>
  <outline>
    <contour>
      <point x="372" y="482" type="line"/>
      <point x="63" y="482" type="line"/>
      <point x="63" y="500" type="line"/>
      <point x="372" y="500" type="line"/>
    </contour>
    <component base="dotlessi"/>
    <component base="acute"/>
  </outline>
</glyph>
<glyph name="uni0902" format="1">
  <advance width="0"/>
  <unicode hex="0902"/>
  <outline>
    <contour>
      <point x="-150.0" y="875.0"/>
      <point x="-161.0" y="863.571428571"/>
      <point x="-161" y="850" type="curve" smooth="yes"/>
      <point x="-161.0" y="836.428571429"/>
      <point x="-150.0" y="825.0"/>
      <point x="-136" y="825" type="curve" smooth="yes"/>
      <point x="-122.0" y="825.0"/>
      <point x="-111.0" y="836.428571429"/>
      <point x="-111" y="850" type="curve" smooth="yes"/>
      <point x="-111.0" y="863.571428571"/>
      <point x="-122.0" y="875.0"/>
      <point x="-136" y="875" type="curve" smooth="yes"/>
    </contour>
  </outline>
</glyph>
<glyph name="uni0905" format="1">
  <advance width="823"/>
  <unicode hex="0905"/>
  <outline>
    <contour>
      <point x="287" y="373" type="curve"/>
      <point x="283" y="389" type="line"/>
      <point x="413" y="401"/>
      <point x="529" y="329"/>
      <point x="529" y="209" type="curve"/>
      <point x="529" y="79"/>
      <point x="413" y="-6"/>
      <point x="276" y="-6" type="curve" smooth="yes"/>
      <point x="133" y="-6"/>
      <point x="26" y="99"/>
      <point x="-13" y="240" type="curve"/>
      <point x="5" y="247" type="line"/>
      <point x="41" y="113"/>
      <point x="140" y="12"/>
      <point x="276" y="12" type="curve"/>
      <point x="402" y="12"/>
      <point x="509" y="90"/>
      <point x="509" y="209" type="curve"/>
      <point x="509" y="318"/>
      <point x="404" y="385"/>
    </contour>
    <contour>
      <point x="283" y="389" type="line"/>
      <point x="381" y="399"/>
      <point x="475" y="448"/>
      <point x="475" y="537" type="curve" smooth="yes"/>
      <point x="475" y="621"/>
      <point x="401" y="667"/>
      <point x="313" y="667" type="curve" smooth="yes"/>
      <point x="242" y="667"/>
      <point x="180" y="631"/>
      <point x="165" y="564" type="curve"/>
      <point x="146" y="567" type="line"/>
      <point x="161" y="643"/>
      <point x="233" y="685"/>
      <point x="313" y="685" type="curve" smooth="yes"/>
      <point x="412" y="685"/>
      <point x="495" y="631"/>
      <point x="495" y="537" type="curve"/>
      <point x="495" y="439"/>
      <point x="395" y="382"/>
      <point x="287" y="373" type="curve"/>
    </contour>
    <contour>
      <point x="344" y="378" type="curve"/>
      <point x="351" y="391" type="line"/>
      <point x="464" y="369"/>
      <point x="572" y="352"/>
      <point x="680" y="392" type="curve"/>
      <point x="681" y="371" type="line"/>
      <point x="568" y="338"/>
      <point x="458" y="351"/>
    </contour>
    <component base="uni093E" xOffset="539"/>
  </outline>
</glyph>
<glyph name="uni0907" format="1">
  <advance width="675"/>
  <unicode hex="0907"/>
  <outline>
    <contour>
      <point x="482" y="542" type="line"/>
      <point x="462" y="542" type="line"/>
      <point x="462" y="674" type="line"/>
      <point x="482" y="674" type="line"/>
    </contour>
    <contour>
      <point x="620" y="74"/>
      <point x="495" y="24"/>
      <point x="365" y="24" type="curve" smooth="yes"/>
      <point x="210" y="24"/>
      <point x="66" y="38"/>
      <point x="66" y="166" type="curve" smooth="yes"/>
      <point x="66.0" y="226.0"/>
      <point x="115" y="264"/>
      <point x="171" y="264" type="curve" smooth="yes"/>
      <point x="248" y="264"/>
      <point x="289.822580645" y="181.0"/>
      <point x="310" y="99" type="curve" smooth="yes"/>
      <point x="341" y="-45" type="line"/>
      <point x="324" y="-50" type="line"/>
      <point x="293" y="92" type="line" smooth="yes"/>
      <point x="271.361111111" y="181.0"/>
      <point x="228" y="246"/>
      <point x="170" y="246" type="curve" smooth="yes"/>
      <point x="125" y="246"/>
      <point x="86.0" y="216.0"/>
      <point x="86" y="167" type="curve" smooth="yes"/>
      <point x="86" y="51"/>
      <point x="230" y="42"/>
      <point x="365" y="42" type="curve" smooth="yes"/>
      <point x="484" y="42"/>
      <point x="600" y="93"/>
      <point x="600" y="187" type="curve" smooth="yes"/>
      <point x="600.0" y="268.0"/>
      <point x="542" y="333"/>
      <point x="459" y="333" type="curve" smooth="yes"/>
      <point x="394" y="333"/>
      <point x="335.927835052" y="322.0"/>
      <point x="271" y="322" type="curve" smooth="yes"/>
      <point x="189" y="322"/>
      <point x="116" y="366"/>
      <point x="116" y="441" type="curve" smooth="yes"/>
      <point x="116" y="531"/>
      <point x="220" y="560"/>
      <point x="324" y="560" type="curve" smooth="yes"/>
      <point x="462" y="560" type="line"/>
      <point x="462" y="542" type="line"/>
      <point x="315" y="542" type="line" smooth="yes"/>
      <point x="225" y="542"/>
      <point x="136" y="519"/>
      <point x="136" y="441" type="curve" smooth="yes"/>
      <point x="136" y="376"/>
      <point x="201" y="340"/>
      <point x="273" y="340" type="curve" smooth="yes"/>
      <point x="339.656410256" y="340.0"/>
      <point x="400" y="350"/>
      <point x="467" y="350" type="curve" smooth="yes"/>
      <point x="556" y="350"/>
      <point x="620.0" y="279.0"/>
      <point x="620" y="189" type="curve" smooth="yes"/>
    </contour>
    <component base="component_6" xOffset="283"/>
    <component base="component_6" xOffset="-108"/>
    <component base="component_6" xOffset="62"/>
  </outline>
</glyph>
<glyph name="uni0909" format="1">
  <advance width="585"/>
  <unicode hex="0909"/>
  <outline>
    <contour>
      <point x="287" y="373" type="curve"/>
      <point x="283" y="389" type="line"/>
      <point x="413" y="401"/>
      <point x="529" y="329"/>
      <point x="529" y="209" type="curve"/>
      <point x="529" y="79"/>
      <point x="413" y="-6"/>
      <point x="276" y="-6" type="curve" smooth="yes"/>
      <point x="133" y="-6"/>
      <point x="26" y="99"/>
      <point x="-13" y="240" type="curve"/>
      <point x="5" y="247" type="line"/>
      <point x="41" y="113"/>
      <point x="140" y="12"/>
      <point x="276" y="12" type="curve"/>
      <point x="402" y="12"/>
      <point x="509" y="90"/>
      <point x="509" y="209" type="curve"/>
      <point x="509" y="318"/>
      <point x="404" y="385"/>
    </contour>
    <contour>
      <point x="283" y="389" type="line"/>
      <point x="381" y="399"/>
      <point x="475" y="438"/>
      <point x="475" y="527" type="curve" smooth="yes"/>
      <point x="475" y="611"/>
      <point x="401" y="667"/>
      <point x="313" y="667" type="curve"/>
      <point x="313" y="685" type="line"/>
      <point x="412" y="685"/>
      <point x="495" y="621"/>
      <point x="495" y="527" type="curve"/>
      <point x="495" y="429"/>
      <point x="395" y="382"/>
      <point x="287" y="373" type="curve"/>
    </contour>
    <component base="component_6" xOffset="193"/>
    <component base="component_6" xOffset="-108"/>
  </outline>
</glyph>
<glyph name="uni090A" format="1">
  <advance width="871"/>
  <unicode hex="090A"/>
  <outline>
    <contour>
      <point x="625" y="123" type="line"/>
      <point x="738" y="66"/>
      <point x="863" y="121"/>
      <point x="863" y="228" type="curve"/>
      <point x="863" y="316"/>
      <point x="788" y="377"/>
      <point x="696" y="377" type="curve"/>
      <point x="602" y="377"/>
      <point x="529" y="307"/>
      <point x="529" y="214" type="curve"/>
      <point x="509" y="221" type="line"/>
      <point x="509" y="322"/>
      <point x="592" y="395"/>
      <point x="696" y="395" type="curve"/>
      <point x="799" y="395"/>
      <point x="883" y="327"/>
      <point x="883" y="228" type="curve"/>
      <point x="883" y="107"/>
      <point x="744" y="45"/>
      <point x="617" y="106" type="curve"/>
    </contour>
    <component base="component_6" xOffset="479"/>
    <component base="uni0909"/>
  </outline>
</glyph>
<glyph name="uni090F" format="1">
  <advance width="614"/>
  <unicode hex="090F"/>
  <outline>
    <contour>
      <point x="496" y="685" type="line"/>
      <point x="496" y="500" type="line"/>
      <point x="496" y="388"/>
      <point x="468" y="285"/>
      <point x="393" y="203" type="curve"/>
      <point x="379" y="217" type="line"/>
      <point x="447" y="298"/>
      <point x="476" y="394"/>
      <point x="476" y="500" type="curve"/>
      <point x="476" y="685" type="line"/>
    </contour>
    <contour>
      <point x="128" y="685" type="line"/>
      <point x="128" y="476" type="line"/>
      <point x="128" y="273"/>
      <point x="225" y="95"/>
      <point x="403" y="-2" type="curve"/>
      <point x="392" y="-19" type="line"/>
      <point x="205" y="77"/>
      <point x="108" y="264"/>
      <point x="108" y="476" type="curve"/>
      <point x="108" y="685" type="line"/>
    </contour>
    <component base="component_6" xOffset="57"/>
    <component base="component_6" xOffset="222"/>
    <component base="component_6" xOffset="-108"/>
  </outline>
</glyph>
<glyph name="uni0915" format="1">
  <advance width="802"/>
  <unicode hex="0915"/>
  <outline>
    <contour>
      <point x="505" y="200" type="line"/>
      <point x="643" y="131"/>
      <point x="743" y="218"/>
      <point x="743" y="305" type="curve"/>
      <point x="743.0" y="387.093959732"/>
      <point x="672.491017964" y="444.0"/>
      <point x="586" y="444" type="curve"/>
      <point x="487" y="444"/>
      <point x="419" y="371"/>
      <point x="419" y="281" type="curve"/>
      <point x="399" y="288" type="line"/>
      <point x="399" y="385"/>
      <point x="479" y="462"/>
      <point x="586" y="462" type="curve"/>
      <point x="683.49197861" y="462.0"/>
      <point x="763.0" y="397.131736527"/>
      <point x="763" y="305" type="curve"/>
      <point x="763" y="204"/>
      <point x="649" y="110"/>
      <point x="497" y="183" type="curve"/>
    </contour>
    <component base="uni0935"/>
    <component base="component_6" xOffset="410"/>
  </outline>
</glyph>
<glyph name="uni0917" format="1">
  <advance width="587"/>
  <unicode hex="0917"/>
  <outline>
    <contour>
      <point x="152" y="316" type="curve"/>
      <point x="152" y="316"/>
      <point x="142" y="292"/>
      <point x="142" y="301" type="curve" smooth="yes"/>
      <point x="142" y="293"/>
      <point x="158" y="292"/>
      <point x="153" y="292" type="curve"/>
      <point x="89" y="292"/>
      <point x="149" y="315"/>
      <point x="149" y="324" type="curve"/>
      <point x="176" y="324" type="line"/>
      <point x="176" y="291"/>
      <point x="160.516129032" y="280.0"/>
      <point x="146" y="280" type="curve"/>
      <point x="130" y="280"/>
      <point x="115" y="289"/>
      <point x="115" y="306" type="curve"/>
      <point x="115" y="339"/>
      <point x="148" y="336"/>
      <point x="175" y="336" type="curve" smooth="yes"/>
      <point x="175" y="336"/>
      <point x="152" y="316"/>
    </contour>
    <contour>
      <point x="156" y="312" type="line"/>
      <point x="156" y="312"/>
      <point x="156" y="670"/>
      <point x="156" y="670" type="curve"/>
      <point x="156" y="670"/>
      <point x="176" y="670"/>
      <point x="176" y="670" type="curve"/>
      <point x="176" y="324" type="line"/>
    </contour>
    <component base="uni093E" xOffset="303"/>
    <component base="component_6" xOffset="-108"/>
  </outline>
</glyph>
<glyph name="uni0918" format="1">
  <advance width="535"/>
  <unicode hex="0918"/>
  <outline>
    <contour>
      <point x="242.0" y="373.0" type="line"/>
      <point x="125.0" y="384.0"/>
      <point x="20" y="325"/>
      <point x="20" y="230" type="curve"/>
      <point x="20.0" y="119.0"/>
      <point x="122" y="79"/>
      <point x="242" y="79" type="curve"/>
      <point x="300" y="79"/>
      <point x="352.923076923" y="95.0"/>
      <point x="396.0" y="123.0" type="curve"/>
      <point x="398.0" y="102.0" type="line"/>
      <point x="352.813793103" y="76.0"/>
      <point x="302" y="61"/>
      <point x="242" y="61" type="curve" smooth="yes"/>
      <point x="111" y="61"/>
      <point x="0.0" y="110.0"/>
      <point x="0" y="230" type="curve"/>
      <point x="0" y="336"/>
      <point x="116.0" y="399.890410959"/>
      <point x="246.0" y="389.0" type="curve"/>
    </contour>
    <contour>
      <point x="216" y="685" type="curve"/>
      <point x="216" y="667" type="line"/>
      <point x="128" y="667"/>
      <point x="54" y="621"/>
      <point x="54" y="537" type="curve" smooth="yes"/>
      <point x="54" y="448"/>
      <point x="148" y="399"/>
      <point x="246" y="389" type="curve"/>
      <point x="242" y="373" type="line"/>
      <point x="134" y="382"/>
      <point x="34" y="439"/>
      <point x="34" y="537" type="curve"/>
      <point x="34" y="631"/>
      <point x="117" y="685"/>
    </contour>
    <component base="component_6" xOffset="-108"/>
    <component base="uni093E" xOffset="251"/>
  </outline>
</glyph>
<glyph name="uni091A" format="1">
  <advance width="585"/>
  <unicode hex="091A"/>
  <outline>
    <contour>
      <point x="342" y="441" type="line"/>
      <point x="213" y="441"/>
      <point x="95" y="380"/>
      <point x="95" y="263" type="curve"/>
      <point x="95" y="171"/>
      <point x="168" y="102"/>
      <point x="261" y="102" type="curve" smooth="yes"/>
      <point x="331" y="102"/>
      <point x="393" y="130"/>
      <point x="439" y="183" type="curve"/>
      <point x="454" y="175" type="line"/>
      <point x="404" y="117"/>
      <point x="337" y="84"/>
      <point x="261" y="84" type="curve" smooth="yes"/>
      <point x="157" y="84"/>
      <point x="75" y="159"/>
      <point x="75" y="261" type="curve"/>
      <point x="75" y="388"/>
      <point x="196" y="466"/>
      <point x="332" y="451" type="curve"/>
    </contour>
    <component base="component_6" xOffset="-60" yOffset="-226"/>
    <component base="component_6" xOffset="-108"/>
    <component base="uni093E" xOffset="301"/>
  </outline>
</glyph>
<glyph name="uni091C" format="1">
  <advance width="810"/>
  <unicode hex="091C"/>
  <outline>
    <contour>
      <point x="364" y="410" type="curve"/>
      <point x="364" y="428" type="line"/>
      <point x="484" y="428"/>
      <point x="590" y="362"/>
      <point x="590" y="248" type="curve"/>
      <point x="590" y="125"/>
      <point x="483" y="41"/>
      <point x="354" y="41" type="curve" smooth="yes"/>
      <point x="207" y="41"/>
      <point x="100" y="154"/>
      <point x="72" y="302" type="curve"/>
      <point x="91" y="309" type="line"/>
      <point x="123" y="171"/>
      <point x="217" y="61"/>
      <point x="354" y="61" type="curve" smooth="yes"/>
      <point x="472" y="61"/>
      <point x="572" y="136"/>
      <point x="572" y="248" type="curve"/>
      <point x="572" y="350"/>
      <point x="474" y="410"/>
    </contour>
    <component base="uni093E" xOffset="526"/>
    <component base="component_6" xOffset="266" yOffset="-257"/>
    <component base="component_6" xOffset="-108"/>
    <component base="component_6" xOffset="152"/>
  </outline>
</glyph>
<glyph name="uni091D" format="1">
  <advance width="932"/>
  <unicode hex="091D"/>
  <outline>
    <contour>
      <point x="600" y="266" type="line"/>
      <point x="665" y="256"/>
      <point x="728" y="254"/>
      <point x="788" y="280" type="curve"/>
      <point x="794" y="264" type="line"/>
      <point x="732" y="237"/>
      <point x="661" y="240"/>
      <point x="594" y="251" type="curve"/>
    </contour>
    <component base="uni0907"/>
    <component base="uni093E" xOffset="648"/>
  </outline>
</glyph>
<glyph name="uni091F" format="1">
  <advance width="651"/>
  <unicode hex="091F"/>
  <outline>
    <contour>
      <point x="428" y="501" type="line"/>
      <point x="408" y="501" type="line"/>
      <point x="408" y="674" type="line"/>
      <point x="428" y="674" type="line"/>
    </contour>
    <contour>
      <point x="408" y="501" type="line"/>
      <point x="164" y="501"/>
      <point x="71" y="398"/>
      <point x="71" y="243" type="curve"/>
      <point x="71" y="97"/>
      <point x="177" y="12"/>
      <point x="321" y="12" type="curve" smooth="yes"/>
      <point x="442" y="12"/>
      <point x="548" y="84"/>
      <point x="577" y="204" type="curve"/>
      <point x="594" y="197" type="line"/>
      <point x="563" y="71"/>
      <point x="453" y="-6"/>
      <point x="322" y="-6" type="curve" smooth="yes"/>
      <point x="167" y="-6"/>
      <point x="51" y="86"/>
      <point x="51" y="243" type="curve"/>
      <point x="51" y="408"/>
      <point x="153" y="519"/>
      <point x="408" y="519" type="curve"/>
    </contour>
    <component base="component_6" xOffset="179"/>
    <component base="component_6" xOffset="-108"/>
    <component base="component_6" xOffset="259"/>
  </outline>
</glyph>
<glyph name="uni0924" format="1">
  <advance width="568"/>
  <unicode hex="0924"/>
  <outline>
    <contour>
      <point x="419" y="287" type="line"/>
      <point x="384" y="382"/>
      <point x="321" y="465"/>
      <point x="221" y="465" type="curve" smooth="yes"/>
      <point x="124" y="465"/>
      <point x="51" y="389"/>
      <point x="51" y="291" type="curve" smooth="yes"/>
      <point x="51.0" y="198.553719008"/>
      <point x="93" y="120"/>
      <point x="157" y="53" type="curve"/>
      <point x="141" y="40" type="line"/>
      <point x="74" y="110"/>
      <point x="32" y="194"/>
      <point x="31" y="291" type="curve" smooth="yes"/>
      <point x="29" y="400"/>
      <point x="112" y="483"/>
      <point x="221" y="483" type="curve"/>
      <point x="326" y="483"/>
      <point x="399" y="400"/>
      <point x="434" y="298" type="curve"/>
    </contour>
    <component base="uni093E" xOffset="284"/>
    <component base="component_6" xOffset="-108"/>
  </outline>
</glyph>
<glyph name="uni0926" format="1">
  <advance width="669"/>
  <unicode hex="0926"/>
  <outline>
    <contour>
      <point x="462" y="421" type="line"/>
      <point x="372" y="421" type="line"/>
      <point x="372" y="664" type="line"/>
      <point x="462" y="664" type="line"/>
    </contour>
    <contour>
      <point x="372" y="421" type="line"/>
      <point x="246" y="421"/>
      <point x="136" y="350"/>
      <point x="136" y="245" type="curve"/>
      <point x="136" y="149"/>
      <point x="231" y="80"/>
      <point x="342" y="80" type="curve" smooth="yes"/>
      <point x="475" y="80"/>
      <point x="555" y="112"/>
      <point x="555" y="185" type="curve"/>
      <point x="555" y="227"/>
      <point x="534" y="257"/>
      <point x="487" y="257" type="curve"/>
      <point x="435" y="257"/>
      <point x="413" y="202"/>
      <point x="413" y="157" type="curve"/>
      <point x="413" y="28"/>
      <point x="506" y="-44"/>
      <point x="620" y="-131" type="curve"/>
      <point x="546" y="-174" type="line"/>
      <point x="420" y="-84"/>
      <point x="324" y="-8"/>
      <point x="324" y="166" type="curve"/>
      <point x="324" y="255"/>
      <point x="392" y="342"/>
      <point x="483" y="342" type="curve"/>
      <point x="585" y="342"/>
      <point x="643" y="275"/>
      <point x="643" y="183" type="curve"/>
      <point x="643" y="64"/>
      <point x="510" y="-6"/>
      <point x="343" y="-6" type="curve" smooth="yes"/>
      <point x="187" y="-6"/>
      <point x="45" y="74"/>
      <point x="45" y="253" type="curve"/>
      <point x="45" y="419"/>
      <point x="199" y="500"/>
      <point x="372" y="500" type="curve"/>
    </contour>
    <component base="component_6" xOffset="277"/>
    <component base="component_6" xOffset="-108"/>
    <component base="component_6" xOffset="163"/>
  </outline>
</glyph>
<glyph name="uni0927" format="1">
  <advance width="592"/>
  <unicode hex="0927"/>
  <outline>
    <contour>
      <point x="216" y="685" type="curve"/>
      <point x="216" y="667" type="line"/>
      <point x="145" y="667"/>
      <point x="86" y="621"/>
      <point x="86" y="537" type="curve" smooth="yes"/>
      <point x="86" y="448"/>
      <point x="190.770833333" y="399.0"/>
      <point x="300" y="389" type="curve"/>
      <point x="296" y="373" type="line"/>
      <point x="176.576923077" y="382.0"/>
      <point x="66" y="439"/>
      <point x="66" y="537" type="curve"/>
      <point x="66" y="631"/>
      <point x="133.96875" y="685.0"/>
    </contour>
    <contour>
      <point x="296" y="373" type="line"/>
      <point x="179" y="384"/>
      <point x="74" y="325"/>
      <point x="74" y="230" type="curve"/>
      <point x="74" y="119"/>
      <point x="176" y="79"/>
      <point x="296" y="79" type="curve"/>
      <point x="354" y="79"/>
      <point x="407" y="95"/>
      <point x="450" y="123" type="curve"/>
      <point x="452" y="102" type="line"/>
      <point x="407" y="76"/>
      <point x="356" y="61"/>
      <point x="296" y="61" type="curve" smooth="yes"/>
      <point x="165" y="61"/>
      <point x="54" y="110"/>
      <point x="54" y="230" type="curve"/>
      <point x="54" y="336"/>
      <point x="170" y="400"/>
      <point x="300" y="389" type="curve"/>
    </contour>
    <contour>
      <point x="-10" y="685" type="line"/>
      <point x="228" y="685" type="line"/>
      <point x="228" y="685"/>
      <point x="228" y="667"/>
      <point x="228" y="667" type="curve"/>
      <point x="-10" y="667" type="line"/>
    </contour>
    <component base="uni093E" xOffset="308"/>
  </outline>
</glyph>
<glyph name="uni0928" format="1">
  <advance width="577"/>
  <unicode hex="0928"/>
  <outline>
    <contour>
      <point x="431" y="316" type="line"/>
      <point x="137" y="316" type="line"/>
      <point x="137.0" y="316.0"/>
      <point x="127.0" y="292.0"/>
      <point x="127" y="301" type="curve" smooth="yes"/>
      <point x="127.0" y="293.285714286"/>
      <point x="143" y="292"/>
      <point x="138" y="292" type="curve"/>
      <point x="74" y="292"/>
      <point x="134.0" y="315.466666667"/>
      <point x="134" y="324" type="curve"/>
      <point x="162" y="324" type="line"/>
      <point x="162" y="291"/>
      <point x="145.925925926" y="280.0"/>
      <point x="131" y="280" type="curve"/>
      <point x="115.0" y="280.0"/>
      <point x="100" y="289"/>
      <point x="100" y="306" type="curve"/>
      <point x="100" y="339"/>
      <point x="133.0" y="336.0"/>
      <point x="160" y="336" type="curve" smooth="yes"/>
      <point x="431" y="336" type="line"/>
    </contour>
    <component base="uni093E" xOffset="293"/>
    <component base="component_6" xOffset="-108"/>
  </outline>
</glyph>
<glyph name="uni092B" format="1">
  <advance width="873"/>
  <unicode hex="092B"/>
  <outline>
    <contour>
      <point x="589" y="257" type="line"/>
      <point x="702" y="200"/>
      <point x="827" y="255"/>
      <point x="827" y="362" type="curve"/>
      <point x="827" y="450"/>
      <point x="752" y="511"/>
      <point x="660" y="511" type="curve"/>
      <point x="566" y="511"/>
      <point x="493" y="441"/>
      <point x="493" y="348" type="curve"/>
      <point x="473" y="355" type="line"/>
      <point x="473" y="456"/>
      <point x="556" y="529"/>
      <point x="660" y="529" type="curve"/>
      <point x="763" y="529"/>
      <point x="847" y="461"/>
      <point x="847" y="362" type="curve"/>
      <point x="847" y="241"/>
      <point x="708" y="179"/>
      <point x="581" y="240" type="curve"/>
    </contour>
    <component base="uni092A"/>
    <component base="component_6" xOffset="481"/>
  </outline>
</glyph>
<glyph name="uni092C" format="1">
  <advance width="551"/>
  <unicode hex="092C"/>
  <outline>
    <contour>
      <point x="130" y="435" type="line"/>
      <point x="323" y="202" type="line"/>
      <point x="309" y="190" type="line"/>
      <point x="115" y="423" type="line"/>
    </contour>
    <component base="uni0935"/>
  </outline>
</glyph>
<glyph name="uni092D" format="1">
  <advance width="642"/>
  <unicode hex="092D"/>
  <outline>
    <contour>
      <point x="496" y="316" type="line"/>
      <point x="202" y="316" type="line"/>
      <point x="202" y="316"/>
      <point x="192" y="292"/>
      <point x="192" y="301" type="curve" smooth="yes"/>
      <point x="192" y="293"/>
      <point x="208" y="292"/>
      <point x="203" y="292" type="curve"/>
      <point x="139" y="292"/>
      <point x="199" y="315"/>
      <point x="199" y="324" type="curve"/>
      <point x="227" y="324" type="line"/>
      <point x="227" y="291"/>
      <point x="211" y="280"/>
      <point x="196" y="280" type="curve"/>
      <point x="180" y="280"/>
      <point x="165" y="289"/>
      <point x="165" y="306" type="curve"/>
      <point x="165" y="339"/>
      <point x="198" y="336"/>
      <point x="225" y="336" type="curve" smooth="yes"/>
      <point x="496" y="336" type="line"/>
    </contour>
    <contour>
      <point x="206" y="312" type="line"/>
      <point x="206" y="670" type="line" smooth="yes"/>
      <point x="206" y="689"/>
      <point x="193" y="702"/>
      <point x="173" y="702" type="curve" smooth="yes"/>
      <point x="156" y="702"/>
      <point x="141" y="688"/>
      <point x="141" y="670" type="curve" smooth="yes"/>
      <point x="141" y="651"/>
      <point x="155" y="637"/>
      <point x="173" y="637" type="curve" smooth="yes"/>
      <point x="194" y="637"/>
      <point x="206" y="649"/>
      <point x="206" y="670" type="curve"/>
      <point x="226" y="670" type="line"/>
      <point x="226" y="639"/>
      <point x="207" y="619"/>
      <point x="173" y="619" type="curve" smooth="yes"/>
      <point x="140" y="619"/>
      <point x="121" y="644"/>
      <point x="121" y="670" type="curve" smooth="yes"/>
      <point x="121" y="695"/>
      <point x="142" y="720"/>
      <point x="173" y="720" type="curve" smooth="yes"/>
      <point x="204" y="720"/>
      <point x="226" y="699"/>
      <point x="226" y="670" type="curve" smooth="yes"/>
      <point x="226" y="312" type="line"/>
    </contour>
    <component base="uni093E" xOffset="358"/>
  </outline>
</glyph>
<glyph name="uni092F" format="1">
  <advance width="706"/>
  <unicode hex="092F"/>
  <outline>
    <contour>
      <point x="284" y="644"/>
      <point x="367.0" y="570.0"/>
      <point x="367" y="466" type="curve"/>
      <point x="367" y="357"/>
      <point x="295" y="266"/>
      <point x="190" y="266" type="curve" smooth="yes"/>
      <point x="139" y="266"/>
      <point x="94" y="279"/>
      <point x="46" y="295" type="curve"/>
      <point x="58" y="302" type="line"/>
      <point x="91" y="174"/>
      <point x="206.381294964" y="115.0"/>
      <point x="333" y="115" type="curve"/>
      <point x="422" y="115"/>
      <point x="494" y="150"/>
      <point x="557" y="212" type="curve"/>
      <point x="570" y="203" type="line"/>
      <point x="508" y="139"/>
      <point x="428" y="97"/>
      <point x="333" y="97" type="curve"/>
      <point x="199" y="97"/>
      <point x="78.5271565495" y="162.0"/>
      <point x="38" y="297" type="curve"/>
      <point x="53" y="312" type="line"/>
      <point x="99" y="297"/>
      <point x="142" y="284"/>
      <point x="190" y="284" type="curve" smooth="yes"/>
      <point x="284" y="284"/>
      <point x="347" y="367"/>
      <point x="347" y="466" type="curve"/>
      <point x="347" y="567"/>
      <point x="264" y="633"/>
      <point x="165" y="668" type="curve"/>
      <point x="183" y="682" type="line"/>
    </contour>
    <component base="component_6" xOffset="27"/>
    <component base="component_6" xOffset="-108"/>
    <component base="uni093E" xOffset="422"/>
  </outline>
</glyph>
<glyph name="uni0930" format="1">
  <advance width="468"/>
  <unicode hex="0930"/>
  <outline>
    <contour>
      <point x="264" y="446" type="line" smooth="yes"/>
      <point x="264.0" y="383.0"/>
      <point x="220" y="334"/>
      <point x="162" y="334" type="curve" smooth="yes"/>
      <point x="128" y="334"/>
      <point x="101.318181818" y="356.0"/>
      <point x="73" y="378" type="curve"/>
      <point x="82" y="384" type="line"/>
      <point x="104.695652174" y="230.416216216"/>
      <point x="200" y="119"/>
      <point x="343" y="15" type="curve"/>
      <point x="333" y="0" type="line"/>
      <point x="186" y="102"/>
      <point x="91.9113924051" y="217.0"/>
      <point x="66" y="373" type="curve"/>
      <point x="83" y="393" type="line"/>
      <point x="106.982142857" y="371.68"/>
      <point x="131" y="352"/>
      <point x="162" y="352" type="curve" smooth="yes"/>
      <point x="209" y="352"/>
      <point x="244.0" y="393.064935065"/>
      <point x="244" y="445" type="curve" smooth="yes"/>
      <point x="244" y="685" type="line"/>
      <point x="264" y="685" type="line"/>
    </contour>
    <component base="component_6" xOffset="76"/>
    <component base="component_6" xOffset="-108"/>
  </outline>
</glyph>
<glyph name="uni0932" format="1">
  <advance width="781"/>
  <unicode hex="0932"/>
  <outline>
    <contour>
      <point x="336" y="219" type="line"/>
      <point x="324" y="320"/>
      <point x="289" y="364"/>
      <point x="226" y="364" type="curve" smooth="yes"/>
      <point x="147.0" y="364.0"/>
      <point x="116" y="306"/>
      <point x="116" y="252" type="curve" smooth="yes"/>
      <point x="116" y="180"/>
      <point x="166" y="142"/>
      <point x="237" y="110" type="curve"/>
      <point x="201" y="33" type="line"/>
      <point x="88" y="65"/>
      <point x="30" y="154"/>
      <point x="28" y="244" type="curve" smooth="yes"/>
      <point x="26" y="349"/>
      <point x="91.0" y="452.0"/>
      <point x="218" y="452" type="curve"/>
      <point x="331" y="452"/>
      <point x="415" y="361"/>
      <point x="403" y="244" type="curve"/>
    </contour>
    <contour>
      <point x="420" y="241" type="curve"/>
      <point x="336" y="219" type="line"/>
      <point x="336.0" y="359.945945946"/>
      <point x="396" y="510"/>
      <point x="601" y="464" type="curve"/>
      <point x="598" y="386" type="line"/>
      <point x="456" y="425"/>
      <point x="392.23853211" y="337.335616438"/>
    </contour>
    <component base="component_6" xOffset="159"/>
    <component base="component_6" xOffset="-108"/>
    <component base="component_6" xOffset="389"/>
    <component base="uni0964" xOffset="429"/>
  </outline>
</glyph>
<glyph name="uni0935" format="1">
  <advance width="551"/>
  <unicode hex="0935"/>
  <outline>
    <contour>
      <point x="45" y="315" type="curve"/>
      <point x="45" y="405"/>
      <point x="120" y="469"/>
      <point x="213" y="469" type="curve" smooth="yes"/>
      <point x="308" y="469"/>
      <point x="384" y="411"/>
      <point x="419" y="322" type="curve"/>
      <point x="399" y="322" type="line"/>
      <point x="369" y="402"/>
      <point x="298" y="451"/>
      <point x="213" y="451" type="curve"/>
      <point x="131" y="451"/>
      <point x="65" y="395"/>
      <point x="65" y="315" type="curve" smooth="yes"/>
      <point x="65" y="232"/>
      <point x="138" y="175"/>
      <point x="225" y="175" type="curve" smooth="yes"/>
      <point x="311" y="175"/>
      <point x="376" y="237"/>
      <point x="399" y="322" type="curve"/>
      <point x="419" y="322" type="line"/>
      <point x="394" y="227"/>
      <point x="321" y="157"/>
      <point x="225" y="157" type="curve" smooth="yes"/>
      <point x="127" y="157"/>
      <point x="45" y="221"/>
    </contour>
    <component base="uni093E" xOffset="267"/>
    <component base="component_6" xOffset="-108"/>
  </outline>
</glyph>
<glyph name="uni0937" format="1">
  <advance width="600"/>
  <unicode hex="0937"/>
  <outline>
    <contour>
      <point x="162" y="678" type="line"/>
      <point x="463" y="300" type="line"/>
      <point x="451" y="285" type="line"/>
      <point x="149" y="663" type="line"/>
    </contour>
    <component base="uni092A"/>
  </outline>
</glyph>
<glyph name="uni093B" format="1">
  <advance width="284"/>
  <unicode hex="093B"/>
  <outline>
    <contour>
      <point x="97" y="685" type="line"/>
      <point x="97" y="850" type="line"/>
      <point x="117" y="850" type="line"/>
      <point x="117" y="685" type="line"/>
    </contour>
    <component base="uni094E"/>
  </outline>
</glyph>
<glyph name="uni093F" format="1">
  <advance width="284"/>
  <unicode hex="093F"/>
  <outline>
    <contour>
      <point x="152" y="685" type="curve"/>
      <point x="125" y="682" type="line"/>
      <point x="53.0610687023" y="707.0"/>
      <point x="1.0" y="750.0"/>
      <point x="1" y="807" type="curve"/>
      <point x="1.0" y="915.519337017"/>
      <point x="169" y="968"/>
      <point x="357" y="968" type="curve" smooth="yes"/>
      <point x="553.694980695" y="968.0"/>
      <point x="731" y="896"/>
      <point x="869" y="751" type="curve"/>
      <point x="860" y="739" type="line"/>
      <point x="721" y="877"/>
      <point x="550" y="950"/>
      <point x="357" y="950" type="curve" smooth="yes"/>
      <point x="135" y="950"/>
      <point x="21.0" y="890.534653465"/>
      <point x="21" y="807" type="curve"/>
      <point x="21" y="748"/>
      <point x="83.2786885246" y="718.469026549"/>
    </contour>
    <component base="uni093E"/>
  </outline>
</glyph>
<glyph name="uni0945" format="1">
  <advance width="0"/>
  <unicode hex="0945"/>
  <outline>
    <contour>
      <point x="-138" y="742" type="curve" smooth="yes"/>
      <point x="-70" y="742"/>
      <point x="-6" y="772"/>
      <point x="-6" y="832" type="curve" smooth="yes"/>
      <point x="-6" y="851"/>
      <point x="-12" y="873"/>
      <point x="-30" y="885" type="curve"/>
      <point x="-48" y="877" type="line"/>
      <point x="-32" y="866"/>
      <point x="-26" y="848"/>
      <point x="-26" y="832" type="curve"/>
      <point x="-26" y="782"/>
      <point x="-81" y="760"/>
      <point x="-138" y="760" type="curve" smooth="yes"/>
      <point x="-194" y="760"/>
      <point x="-239" y="795"/>
      <point x="-269" y="843" type="curve"/>
      <point x="-284" y="830" type="line"/>
      <point x="-251" y="777"/>
      <point x="-200" y="742"/>
    </contour>
  </outline>
</glyph>
<glyph name="uni0946" format="1">
  <advance width="0"/>
  <unicode hex="0946"/>
  <outline>
    <contour>
      <point x="-145" y="685" type="line"/>
      <point x="-145" y="769"/>
      <point x="-230" y="813"/>
      <point x="-323" y="813" type="curve" smooth="yes"/>
      <point x="-425" y="813"/>
      <point x="-520" y="858"/>
      <point x="-520" y="950" type="curve"/>
      <point x="-500" y="950" type="line"/>
      <point x="-500" y="869"/>
      <point x="-414" y="831"/>
      <point x="-323" y="831" type="curve" smooth="yes"/>
      <point x="-219" y="831"/>
      <point x="-125" y="779"/>
      <point x="-125" y="685" type="curve"/>
    </contour>
  </outline>
</glyph>
<glyph name="uni0947" format="1">
  <advance width="0"/>
  <unicode hex="0947"/>
  <outline>
    <contour>
      <point x="-153" y="685" type="line"/>
      <point x="-185" y="834"/>
      <point x="-269" y="937"/>
      <point x="-399" y="937" type="curve" smooth="yes"/>
      <point x="-458" y="937"/>
      <point x="-512" y="926"/>
      <point x="-564" y="898" type="curve"/>
      <point x="-575" y="912" type="line"/>
      <point x="-519" y="940"/>
      <point x="-462" y="955"/>
      <point x="-399" y="955" type="curve" smooth="yes"/>
      <point x="-259" y="955"/>
      <point x="-168" y="844"/>
      <point x="-133" y="685" type="curve"/>
    </contour>
  </outline>
</glyph>
<glyph name="uni0948" format="1">
  <advance width="0"/>
  <unicode hex="0948"/>
  <outline>
    <contour>
      <point x="-157" y="685" type="line"/>
      <point x="-219" y="774"/>
      <point x="-294" y="795"/>
      <point x="-378" y="795" type="curve" smooth="yes"/>
      <point x="-447" y="795"/>
      <point x="-506" y="774"/>
      <point x="-554" y="743" type="curve"/>
      <point x="-565" y="756" type="line"/>
      <point x="-519" y="785"/>
      <point x="-458" y="813"/>
      <point x="-378" y="813" type="curve" smooth="yes"/>
      <point x="-262" y="813"/>
      <point x="-198" y="768"/>
      <point x="-137" y="685" type="curve"/>
    </contour>
    <contour>
      <point x="-151" y="685" type="line"/>
      <point x="-202" y="810"/>
      <point x="-249.0" y="917.0"/>
      <point x="-406" y="917" type="curve" smooth="yes"/>
      <point x="-464.0" y="917.0"/>
      <point x="-509.0" y="903.297297297"/>
      <point x="-557" y="878" type="curve"/>
      <point x="-569" y="892" type="line"/>
      <point x="-516" y="920"/>
      <point x="-465" y="935"/>
      <point x="-406" y="935" type="curve" smooth="yes"/>
      <point x="-262" y="935"/>
      <point x="-182.268608414" y="846.111111111"/>
      <point x="-137" y="685" type="curve"/>
    </contour>
  </outline>
</glyph>
<glyph name="uni094C" format="1">
  <advance width="284"/>
  <unicode hex="094C"/>
  <outline>
    <contour>
      <point x="86" y="685" type="line"/>
      <point x="35" y="732"/>
      <point x="-26" y="743"/>
      <point x="-95" y="743" type="curve" smooth="yes"/>
      <point x="-152" y="743"/>
      <point x="-201" y="726"/>
      <point x="-241" y="701" type="curve"/>
      <point x="-292" y="766" type="line"/>
      <point x="-244" y="795"/>
      <point x="-179" y="823"/>
      <point x="-95" y="823" type="curve" smooth="yes"/>
      <point x="40" y="823"/>
      <point x="115" y="774"/>
      <point x="186" y="685" type="curve"/>
    </contour>
    <contour>
      <point x="97" y="685" type="line"/>
      <point x="54" y="787"/>
      <point x="14" y="875"/>
      <point x="-118" y="875" type="curve" smooth="yes"/>
      <point x="-169" y="875"/>
      <point x="-209" y="861"/>
      <point x="-251" y="836" type="curve"/>
      <point x="-292" y="912" type="line"/>
      <point x="-236" y="940"/>
      <point x="-181" y="955"/>
      <point x="-118" y="955" type="curve" smooth="yes"/>
      <point x="47" y="955"/>
      <point x="139" y="859"/>
      <point x="191" y="685" type="curve"/>
    </contour>
    <component base="uni093E"/>
  </outline>
</glyph>
<glyph name="uni094E" format="1">
  <advance width="284"/>
  <unicode hex="094E"/>
  <outline>
    <contour>
      <point x="97" y="685" type="line"/>
      <point x="294" y="685" type="line"/>
      <point x="294" y="667" type="line"/>
      <point x="97" y="667" type="line"/>
    </contour>
    <component base="l" xOffset="42"/>
  </outline>
</glyph>
<glyph name="uni0951" format="1">
  <advance width="284"/>
  <unicode hex="0951"/>
  <outline>
    <contour>
      <point x="132" y="685" type="line"/>
      <point x="132" y="850" type="line"/>
      <point x="152" y="850" type="line"/>
      <point x="152" y="685" type="line"/>
    </contour>
  </outline>
</glyph>
<glyph name="uni0956" format="1">
  <advance width="0"/>
  <unicode hex="0956"/>
  <outline>
    <contour>
      <point x="-101" y="-173"/>
      <point x="-170" y="-198"/>
      <point x="-247" y="-198" type="curve" smooth="yes"/>
      <point x="-315" y="-198"/>
      <point x="-377" y="-179"/>
      <point x="-429" y="-135" type="curve"/>
      <point x="-418" y="-121" type="line"/>
      <point x="-370" y="-164"/>
      <point x="-311" y="-180"/>
      <point x="-247" y="-180" type="curve" smooth="yes"/>
      <point x="-176" y="-180"/>
      <point x="-113" y="-153"/>
      <point x="-58" y="-108" type="curve"/>
      <point x="-45" y="-120" type="line"/>
    </contour>
  </outline>
</glyph>
<glyph name="uni0957" format="1">
  <advance width="0"/>
  <unicode hex="0957"/>
  <outline>
    <contour>
      <point x="-65" y="-284"/>
      <point x="-152" y="-306"/>
      <point x="-245" y="-306" type="curve" smooth="yes"/>
      <point x="-328" y="-306"/>
      <point x="-406" y="-285"/>
      <point x="-467" y="-229" type="curve"/>
      <point x="-454" y="-215" type="line"/>
      <point x="-399" y="-271"/>
      <point x="-324" y="-288"/>
      <point x="-245" y="-288" type="curve" smooth="yes"/>
      <point x="-158" y="-288"/>
      <point x="-76" y="-266"/>
      <point x="-13" y="-206" type="curve"/>
      <point x="-1" y="-217" type="line"/>
    </contour>
    <component base="uni0956"/>
  </outline>
</glyph>
<glyph name="uni096F" format="1">
  <advance width="510"/>
  <unicode hex="096F"/>
  <outline>
    <contour>
      <point x="73" y="514" type="curve" smooth="yes"/>
      <point x="73" y="615"/>
      <point x="151.986580817" y="692.0"/>
      <point x="252" y="692" type="curve" smooth="yes"/>
      <point x="348.191701473" y="692.0"/>
      <point x="428.0" y="618.0"/>
      <point x="428" y="521" type="curve" smooth="yes"/>
      <point x="428.0" y="430.0"/>
      <point x="348.193671955" y="357.0"/>
      <point x="252" y="357" type="curve"/>
      <point x="376" y="269"/>
      <point x="450" y="188"/>
      <point x="450" y="110" type="curve" smooth="yes"/>
      <point x="450" y="39"/>
      <point x="389" y="-20"/>
      <point x="313" y="-20" type="curve" smooth="yes"/>
      <point x="255" y="-20"/>
      <point x="200" y="24"/>
      <point x="176" y="90" type="curve"/>
      <point x="259" y="131" type="line"/>
      <point x="271" y="98"/>
      <point x="293" y="76"/>
      <point x="313" y="76" type="curve" smooth="yes"/>
      <point x="335" y="76"/>
      <point x="355" y="92"/>
      <point x="355" y="110" type="curve" smooth="yes"/>
      <point x="355" y="207"/>
      <point x="73" y="302"/>
    </contour>
    <contour>
      <point x="252" y="439" type="curve" smooth="yes"/>
      <point x="299" y="439"/>
      <point x="338" y="476"/>
      <point x="338" y="521" type="curve" smooth="yes"/>
      <point x="338" y="566"/>
      <point x="299" y="603"/>
      <point x="252" y="603" type="curve" smooth="yes"/>
      <point x="206" y="603"/>
      <point x="171" y="562"/>
      <point x="171" y="510" type="curve"/>
      <point x="171" y="470"/>
      <point x="213" y="439"/>
    </contour>
  </outline>
</glyph>
<glyph name="uni097A" format="1">
  <advance width="706"/>
  <unicode hex="097A"/>
  <outline>
    <contour>
      <point x="345" y="554" type="line"/>
      <point x="567" y="209" type="line"/>
      <point x="553" y="194" type="line"/>
      <point x="330" y="541" type="line"/>
    </contour>
    <component base="uni092F"/>
  </outline>
</glyph>
<glyph name="Euro" format="1">
  <advance width="637"/>
  <unicode hex="20AC"/>
  <outline>
    <contour>
      <point x="35" y="304" type="line"/>
      <point x="524" y="304" type="line"/>
      <point x="496" y="233" type="line"/>
      <point x="10" y="233" type="line"/>
    </contour>
    <contour>
      <point x="54" y="422" type="line"/>
      <point x="542" y="422" type="line"/>
      <point x="515" y="351" type="line"/>
      <point x="28" y="351" type="line"/>
    </contour>
    <contour>
      <point x="537" y="144" type="curve"/>
      <point x="585" y="76" type="line" smooth="yes"/>
      <point x="539" y="47"/>
      <point x="485" y="30"/>
      <point x="422" y="30" type="curve" smooth="yes"/>
      <point x="257" y="30"/>
      <point x="124" y="158"/>
      <point x="124" y="327" type="curve" smooth="yes"/>
      <point x="124" y="501"/>
      <point x="256" y="653"/>
      <point x="422" y="653" type="curve" smooth="yes"/>
      <point x="503" y="653"/>
      <point x="573" y="621"/>
      <point x="627" y="573" type="curve"/>
      <point x="594" y="487" type="line"/>
      <point x="554" y="539"/>
      <point x="494" y="574"/>
      <point x="422" y="574" type="curve" smooth="yes"/>
      <point x="305" y="574"/>
      <point x="212" y="451"/>
      <point x="212" y="327" type="curve" smooth="yes"/>
      <point x="212" y="209"/>
      <point x="308" y="111"/>
      <point x="422" y="111" type="curve" smooth="yes"/>
      <point x="464" y="111"/>
      <point x="503" y="123"/>
    </contour>
  </outline>
</glyph>
<glyph name="f_f" format="1">
  <advance width="589"/>
  <unicode hex="FB00"/>
  <outline>
    <contour>
      <point x="23" y="480" type="line"/>
      <point x="23" y="500" type="line"/>
      <point x="307" y="500" type="line"/>
      <point x="307" y="480" type="line"/>
    </contour>
    <contour>
      <point x="167" y="0" type="line"/>
      <point x="147" y="0" type="line"/>
      <point x="147" y="589" type="line" smooth="yes"/>
      <point x="147" y="622"/>
      <point x="144" y="762"/>
      <point x="411" y="625" type="curve"/>
      <point x="399" y="609" type="line"/>
      <point x="160" y="731"/>
      <point x="167" y="618"/>
      <point x="167" y="580" type="curve" smooth="yes"/>
    </contour>
    <component base="f" xOffset="242"/>
  </outline>
</glyph>
<glyph name="fl" format="1">
  <advance width="525"/>
  <unicode hex="FB02"/>
  <outline>
    <contour>
      <point x="23" y="480" type="line"/>
      <point x="23" y="500" type="line"/>
      <point x="307" y="500" type="line"/>
      <point x="307" y="480" type="line"/>
    </contour>
    <contour>
      <point x="167" y="0" type="line"/>
      <point x="147" y="0" type="line"/>
      <point x="147" y="588" type="line" smooth="yes"/>
      <point x="147.0" y="639.895522388"/>
      <point x="150" y="743"/>
      <point x="409" y="645" type="curve"/>
      <point x="397" y="629" type="line"/>
      <point x="187" y="714"/>
      <point x="167.0" y="642.851851852"/>
      <point x="167" y="585" type="curve" smooth="yes"/>
    </contour>
    <contour>
      <point x="389" y="0" type="line"/>
      <point x="389" y="645" type="line"/>
      <point x="409" y="645" type="line"/>
      <point x="409" y="0" type="line"/>
    </contour>
  </outline>
</glyph>
<glyph name="f_f_i" format="1">
  <advance width="780.0"/>
  <unicode hex="FB03"/>
  <outline>
    <contour>
      <point x="549" y="480" type="line"/>
      <point x="549" y="500" type="line"/>
      <point x="633" y="500" type="line"/>
      <point x="633" y="480" type="line"/>
    </contour>
    <component base="dotlessi" xOffset="576"/>
    <component base="f_f"/>
  </outline>
</glyph>
<glyph name="a.ss02" format="1">
  <advance width="516"/>
  <outline>
    <contour>
      <point x="55.0" y="458.0"/>
      <point x="154.225" y="510.0"/>
      <point x="244" y="510" type="curve" smooth="yes"/>
      <point x="341.952941176" y="510.0"/>
      <point x="425.0" y="460.0"/>
      <point x="425" y="320" type="curve" smooth="yes"/>
      <point x="425" y="0" type="line" smooth="yes"/>
      <point x="405" y="0" type="line"/>
      <point x="405" y="324" type="line" smooth="yes"/>
      <point x="405.0" y="450.0"/>
      <point x="326.646666667" y="492.0"/>
      <point x="244" y="492" type="curve"/>
      <point x="175.461111111" y="492.0"/>
      <point x="75.0" y="449.010989011"/>
      <point x="75" y="329" type="curve"/>
      <point x="55" y="329" type="line"/>
    </contour>
    <contour>
      <point x="405" y="265" type="line"/>
      <point x="237" y="269"/>
      <point x="65" y="272"/>
      <point x="65" y="139" type="curve"/>
      <point x="65" y="53"/>
      <point x="120" y="6"/>
      <point x="212" y="6" type="curve"/>
      <point x="313" y="6"/>
      <point x="405" y="80"/>
      <point x="405" y="228" type="curve"/>
      <point x="422" y="215" type="line"/>
      <point x="410" y="77"/>
      <point x="335" y="-12"/>
      <point x="207" y="-12" type="curve"/>
      <point x="121" y="-12"/>
      <point x="45" y="29"/>
      <point x="45" y="139" type="curve"/>
      <point x="45" y="268"/>
      <point x="187" y="295"/>
      <point x="411" y="282" type="curve"/>
    </contour>
  </outline>
</glyph>
<glyph name="boucle" format="1">
  <advance width="630"/>
  <outline>
    <contour>
      <point x="398" y="259" type="line"/>
      <point x="398" y="393"/>
      <point x="320" y="490"/>
      <point x="202" y="490" type="curve"/>
      <point x="82" y="490"/>
      <point x="9" y="377"/>
      <point x="9" y="248" type="curve"/>
      <point x="9" y="120"/>
      <point x="71" y="8"/>
      <point x="201" y="10" type="curve"/>
      <point x="326" y="10"/>
      <point x="398" y="129"/>
      <point x="398" y="259" type="curve"/>
      <point x="416" y="259" type="line"/>
      <point x="416" y="111"/>
      <point x="329" y="-10"/>
      <point x="192" y="-10" type="curve"/>
      <point x="62" y="-12"/>
      <point x="-11" y="111"/>
      <point x="-11" y="248" type="curve" smooth="yes"/>
      <point x="-11" y="387"/>
      <point x="67" y="510"/>
      <point x="196" y="510" type="curve"/>
      <point x="328" y="510"/>
      <point x="416" y="404"/>
      <point x="416" y="259" type="curve"/>
    </contour>
  </outline>
</glyph>
<glyph name="commaaccent" format="1">
  <advance width="202"/>
  <outline>
    <component base="comma" xOffset="35" yOffset="-199"/>
    <contour>
      <point x="108" y="0" type="move" name="_bottom"/>
    </contour>
  </outline>
</glyph>
<glyph name="component_10" format="1">
  <advance width="630"/>
  <outline>
    <contour>
      <point x="368" y="276" type="line"/>
      <point x="113" y="276" type="line"/>
      <point x="113" y="276"/>
      <point x="96" y="277"/>
      <point x="96" y="287" type="curve" smooth="yes"/>
      <point x="96" y="293"/>
      <point x="115" y="294"/>
      <point x="109" y="294" type="curve"/>
      <point x="125" y="294"/>
      <point x="110" y="316"/>
      <point x="110" y="324" type="curve"/>
      <point x="187" y="324" type="line"/>
      <point x="187" y="234"/>
      <point x="160" y="203"/>
      <point x="137" y="203" type="curve"/>
      <point x="71" y="203"/>
      <point x="10" y="233"/>
      <point x="10" y="284" type="curve"/>
      <point x="10" y="341"/>
      <point x="66" y="366"/>
      <point x="113" y="366" type="curve" smooth="yes"/>
      <point x="368" y="366" type="line"/>
    </contour>
  </outline>
</glyph>
<glyph name="component_6" format="1">
  <advance width="500"/>
  <outline>
    <contour>
      <point x="98" y="685" type="line"/>
      <point x="402" y="685" type="line"/>
      <point x="402" y="667" type="line"/>
      <point x="98" y="667" type="line"/>
    </contour>
  </outline>
</glyph>
<glyph name="component_8" format="1">
  <advance width="630"/>
  <outline>
    <contour>
      <point x="305" y="222" type="curve"/>
      <point x="395" y="222"/>
      <point x="459" y="296"/>
      <point x="459" y="388" type="curve" smooth="yes"/>
      <point x="459" y="683" type="line"/>
      <point x="479" y="683" type="line"/>
      <point x="479" y="388" type="line" smooth="yes"/>
      <point x="479" y="285"/>
      <point x="406" y="204"/>
      <point x="305" y="204" type="curve" smooth="yes"/>
      <point x="204" y="204"/>
      <point x="131" y="285"/>
      <point x="131" y="388" type="curve" smooth="yes"/>
      <point x="131" y="683" type="line"/>
      <point x="151" y="683" type="line"/>
      <point x="151" y="388" type="line" smooth="yes"/>
      <point x="151" y="296"/>
      <point x="215" y="222"/>
    </contour>
  </outline>
</glyph>
<glyph name="component_9" format="1">
  <advance width="630"/>
  <outline>
    <contour>
      <point x="457" y="315" type="line"/>
      <point x="141" y="108" type="line"/>
      <point x="90" y="181" type="line"/>
      <point x="406" y="388" type="line"/>
    </contour>
  </outline>
</glyph>
<glyph name="g.ss01" format="1">
  <advance width="539"/>
  <outline>
    <contour>
      <point x="439" y="37" type="line"/>
      <point x="459" y="37" type="line"/>
      <point x="459" y="-18" type="line" smooth="yes"/>
      <point x="459.0" y="-141.269503546"/>
      <point x="341.790697674" y="-209.0"/>
      <point x="234" y="-209" type="curve" smooth="yes"/>
      <point x="171.529411765" y="-209.0"/>
      <point x="95" y="-192"/>
      <point x="57" y="-140" type="curve"/>
      <point x="67" y="-122" type="line"/>
      <point x="97" y="-172"/>
      <point x="167.885714286" y="-191.0"/>
      <point x="232" y="-191" type="curve" smooth="yes"/>
      <point x="329.720812183" y="-191.0"/>
      <point x="439.0" y="-130.333333333"/>
      <point x="439" y="-9" type="curve" smooth="yes"/>
    </contour>
    <component base="a.ss01"/>
  </outline>
</glyph>
<glyph name="n.51" format="1">
  <advance width="500.456225586"/>
  <outline>
    <contour>
      <point x="389.391699219" y="0.0" type="line"/>
      <point x="389.391699219" y="333.847924805" type="line" smooth="yes"/>
      <point x="389.391699219" y="416.694001465"/>
      <point x="332.695849609" y="457.935473633"/>
      <point x="265.152075195" y="457.935473633" type="curve" smooth="yes"/>
      <point x="185.123508301" y="457.935473633"/>
      <point x="111.064526367" y="393.330869141"/>
      <point x="111.064526367" y="284.0" type="curve"/>
      <point x="83.6083007812" y="284.0" type="line"/>
      <point x="83.6083007812" y="442.908754883"/>
      <point x="186.941018066" y="510.0"/>
      <point x="278.304150391" y="510.0" type="curve"/>
      <point x="374.395395508" y="510.0"/>
      <point x="445.456225586" y="445.091245117"/>
      <point x="445.456225586" y="349.304150391" type="curve" smooth="yes"/>
      <point x="445.456225586" y="0.0" type="line"/>
    </contour>
    <contour>
      <point x="55.0" y="0.0" type="line"/>
      <point x="55.0" y="500.0" type="line"/>
      <point x="111.064526367" y="500.0" type="line"/>
      <point x="111.064526367" y="0.0" type="line"/>
    </contour>
    <contour>
      <point x="244.456225586" y="500.0" type="move" name="top"/>
    </contour>
    <contour>
      <point x="242.456225586" y="0.0" type="move" name="bottom"/>
    </contour>
  </outline>
</glyph>
<glyph name="uni0908" format="1">
  <advance width="675"/>
  <outline>
    <contour>
      <point x="478" y="668" type="line"/>
      <point x="405" y="701"/>
      <point x="341" y="747"/>
      <point x="341" y="825" type="curve" smooth="yes"/>
      <point x="341" y="905"/>
      <point x="416" y="950"/>
      <point x="503" y="950" type="curve" smooth="yes"/>
      <point x="555" y="950"/>
      <point x="600" y="932"/>
      <point x="639" y="897" type="curve"/>
      <point x="625" y="884" type="line"/>
      <point x="589" y="914"/>
      <point x="550" y="932"/>
      <point x="503" y="932" type="curve" smooth="yes"/>
      <point x="427" y="932"/>
      <point x="361" y="894"/>
      <point x="361" y="825" type="curve" smooth="yes"/>
      <point x="361" y="750"/>
      <point x="426" y="710"/>
      <point x="496" y="677" type="curve"/>
    </contour>
    <component base="uni0907"/>
  </outline>
</glyph>
<glyph name="uni0932.alt" format="1">
  <advance width="781"/>
  <outline>
    <contour>
      <point x="561" y="404" type="line"/>
      <point x="471" y="404" type="line"/>
      <point x="471" y="664" type="line"/>
      <point x="561" y="664" type="line"/>
    </contour>
    <contour>
      <point x="336" y="219" type="line"/>
      <point x="324" y="320"/>
      <point x="289" y="364"/>
      <point x="226" y="364" type="curve" smooth="yes"/>
      <point x="169" y="364"/>
      <point x="116" y="320"/>
      <point x="116" y="243" type="curve" smooth="yes"/>
      <point x="116" y="176"/>
      <point x="156" y="145"/>
      <point x="237" y="110" type="curve"/>
      <point x="201" y="33" type="line"/>
      <point x="82" y="70"/>
      <point x="29" y="149"/>
      <point x="28" y="235" type="curve" smooth="yes"/>
      <point x="26" y="358"/>
      <point x="104" y="452"/>
      <point x="218" y="452" type="curve"/>
      <point x="331" y="452"/>
      <point x="415" y="361"/>
      <point x="403" y="244" type="curve"/>
    </contour>
    <contour>
      <point x="420" y="241" type="curve"/>
      <point x="336" y="219" type="line"/>
      <point x="336" y="368"/>
      <point x="427" y="478"/>
      <point x="525" y="478" type="curve"/>
      <point x="662" y="478"/>
      <point x="726" y="378"/>
      <point x="726" y="241" type="curve" smooth="yes"/>
      <point x="726" y="71"/>
      <point x="618" y="3"/>
      <point x="524" y="-26" type="curve"/>
      <point x="488" y="55" type="line"/>
      <point x="571" y="81"/>
      <point x="638" y="136"/>
      <point x="638" y="250" type="curve" smooth="yes"/>
      <point x="638" y="335"/>
      <point x="592" y="387"/>
      <point x="529" y="387" type="curve"/>
      <point x="471" y="387"/>
      <point x="403" y="338"/>
    </contour>
    <component base="component_6" xOffset="-108"/>
    <component base="component_6" xOffset="389"/>
    <component base="component_6" xOffset="131"/>
  </outline>
</glyph>
<glyph name="uni094F" format="1">
  <advance width="284"/>
  <outline>
    <contour>
      <point x="101" y="685" type="line"/>
      <point x="101.0" y="685.0"/>
      <point x="193" y="733"/>
      <point x="193" y="802" type="curve"/>
      <point x="193.0" y="894.0"/>
      <point x="15" y="811"/>
      <point x="15" y="1029" type="curve"/>
      <point x="15" y="1089"/>
      <point x="49" y="1126"/>
      <point x="78" y="1143" type="curve"/>
      <point x="143" y="1093" type="line"/>
      <point x="126" y="1078"/>
      <point x="106.052631579" y="1063.6875"/>
      <point x="107" y="1026" type="curve"/>
      <point x="106" y="888"/>
      <point x="276" y="994"/>
      <point x="276" y="812" type="curve"/>
      <point x="276" y="715"/>
      <point x="190.0" y="685.0"/>
      <point x="190" y="685" type="curve"/>
    </contour>
    <component base="uni094A"/>
    <component base="uni094A"/>
  </outline>
</glyph>
<glyph name="uni0960" format="1">
  <advance width="874"/>
  <outline>
    <contour>
      <point x="731" y="175" type="line" smooth="yes"/>
      <point x="706" y="142"/>
      <point x="679" y="116"/>
      <point x="680" y="85" type="curve"/>
      <point x="679" y="69"/>
      <point x="695" y="54"/>
      <point x="718" y="54" type="curve"/>
      <point x="750" y="54"/>
      <point x="763" y="65"/>
      <point x="786" y="90" type="curve"/>
      <point x="834" y="40" type="line"/>
      <point x="801" y="-3"/>
      <point x="748" y="-18"/>
      <point x="706" y="-18" type="curve"/>
      <point x="656" y="-18"/>
      <point x="595" y="16"/>
      <point x="595" y="85" type="curve"/>
      <point x="595" y="140"/>
      <point x="629" y="170"/>
      <point x="655" y="201" type="curve"/>
    </contour>
    <contour>
      <point x="731" y="334" type="line" smooth="yes"/>
      <point x="706" y="301"/>
      <point x="679" y="275"/>
      <point x="680" y="244" type="curve"/>
      <point x="679" y="228"/>
      <point x="695" y="213"/>
      <point x="718" y="213" type="curve"/>
      <point x="750" y="213"/>
      <point x="763" y="224"/>
      <point x="786" y="249" type="curve"/>
      <point x="834" y="199" type="line"/>
      <point x="801" y="156"/>
      <point x="748" y="141"/>
      <point x="706" y="141" type="curve"/>
      <point x="656" y="141"/>
      <point x="595" y="175"/>
      <point x="595" y="244" type="curve"/>
      <point x="595" y="299"/>
      <point x="629" y="329"/>
      <point x="655" y="360" type="curve"/>
    </contour>
    <contour>
      <point x="449" y="401" type="line"/>
      <point x="570" y="294"/>
      <point x="673" y="361"/>
      <point x="673" y="450" type="curve"/>
      <point x="673.0" y="444.0"/>
      <point x="675" y="462"/>
      <point x="682" y="462" type="curve" smooth="yes"/>
      <point x="688" y="462"/>
      <point x="672.25" y="393.0"/>
      <point x="669" y="388" type="curve"/>
      <point x="583" y="444" type="line"/>
      <point x="591" y="492"/>
      <point x="637" y="544"/>
      <point x="692" y="544" type="curve"/>
      <point x="725" y="544"/>
      <point x="785" y="522"/>
      <point x="785" y="450" type="curve" smooth="yes"/>
      <point x="785" y="309"/>
      <point x="544" y="167"/>
      <point x="392" y="356" type="curve"/>
    </contour>
    <contour>
      <point x="376" y="358" type="line"/>
      <point x="325" y="405"/>
      <point x="264" y="416"/>
      <point x="195" y="416" type="curve" smooth="yes"/>
      <point x="138" y="416"/>
      <point x="89" y="399"/>
      <point x="49" y="374" type="curve"/>
      <point x="-2" y="439" type="line"/>
      <point x="46" y="468"/>
      <point x="111" y="496"/>
      <point x="195" y="496" type="curve" smooth="yes"/>
      <point x="330" y="496"/>
      <point x="405" y="447"/>
      <point x="476" y="358" type="curve"/>
    </contour>
    <component base="component_3" xOffset="1" yOffset="-319"/>
    <component base="component_6" xOffset="185"/>
    <component base="component_6" xOffset="-108"/>
    <component base="component_6" xOffset="482"/>
    <component base="l" xOffset="331"/>
    <component base="component_9"/>
  </outline>
</glyph>
<glyph name="uni0963" format="1">
  <advance width="0"/>
  <outline>
    <contour>
      <point x="-23" y="-380" type="line"/>
      <point x="-43" y="-406"/>
      <point x="-65" y="-427"/>
      <point x="-64" y="-447" type="curve"/>
      <point x="-65" y="-465"/>
      <point x="-52" y="-477"/>
      <point x="-34" y="-477" type="curve"/>
      <point x="-8" y="-477"/>
      <point x="2" y="-468"/>
      <point x="21" y="-448" type="curve"/>
      <point x="61" y="-496" type="line"/>
      <point x="35" y="-530"/>
      <point x="-11" y="-544"/>
      <point x="-45" y="-544" type="curve"/>
      <point x="-93" y="-544"/>
      <point x="-142" y="-507"/>
      <point x="-142" y="-452" type="curve"/>
      <point x="-142" y="-408"/>
      <point x="-104" y="-380"/>
      <point x="-80" y="-359" type="curve"/>
    </contour>
    <component base="uni0962"/>
  </outline>
</glyph>
<glyph name="uni097C" format="1">
  <advance width="765"/>
  <outline>
    <contour>
      <point x="312" y="472" type="curve"/>
      <point x="312" y="490" type="line"/>
      <point x="431" y="490"/>
      <point x="538" y="437"/>
      <point x="538" y="330" type="curve"/>
      <point x="538" y="208"/>
      <point x="430" y="134"/>
      <point x="301" y="134" type="curve" smooth="yes"/>
      <point x="159" y="134"/>
      <point x="50" y="225"/>
      <point x="20" y="364" type="curve"/>
      <point x="37" y="372" type="line"/>
      <point x="74" y="243"/>
      <point x="169" y="152"/>
      <point x="301" y="152" type="curve" smooth="yes"/>
      <point x="419" y="152"/>
      <point x="518" y="219"/>
      <point x="518" y="330" type="curve"/>
      <point x="518" y="427"/>
      <point x="420" y="472"/>
    </contour>
    <component base="component_6" xOffset="218" yOffset="-667"/>
    <component base="uni093E" xOffset="481"/>
    <component base="component_6" xOffset="-103"/>
    <component base="component_6" xOffset="107"/>
    <component base="component_6" xOffset="214" yOffset="-195"/>
    <component base="component_6" xOffset="-42" yOffset="-667"/>
  </outline>
</glyph>
